G04 #@! TF.GenerationSoftware,KiCad,Pcbnew,(5.1.0)-1*
G04 #@! TF.CreationDate,2021-05-18T23:18:49-03:00*
G04 #@! TF.ProjectId,Arduino_Mega_Solenoid_Shield_r01,41726475-696e-46f5-9f4d-6567615f536f,rev?*
G04 #@! TF.SameCoordinates,Original*
G04 #@! TF.FileFunction,Copper,L2,Bot*
G04 #@! TF.FilePolarity,Positive*
%FSLAX46Y46*%
G04 Gerber Fmt 4.6, Leading zero omitted, Abs format (unit mm)*
G04 Created by KiCad (PCBNEW (5.1.0)-1) date 2021-05-18 23:18:49*
%MOMM*%
%LPD*%
G04 APERTURE LIST*
%ADD10O,2.000000X1.600000*%
%ADD11R,1.600000X1.600000*%
%ADD12C,2.000000*%
%ADD13O,1.905000X2.000000*%
%ADD14R,1.905000X2.000000*%
%ADD15C,3.000000*%
%ADD16R,3.000000X3.000000*%
%ADD17R,1.800000X1.800000*%
%ADD18C,1.800000*%
%ADD19O,2.200000X2.200000*%
%ADD20R,2.200000X2.200000*%
%ADD21O,2.000000X2.000000*%
%ADD22R,1.600000X2.000000*%
%ADD23O,1.600000X2.000000*%
%ADD24O,1.727200X2.532000*%
%ADD25R,2.000000X1.905000*%
%ADD26O,2.000000X1.905000*%
%ADD27C,1.000000*%
%ADD28C,0.500000*%
G04 APERTURE END LIST*
D10*
X129057400Y-83210400D03*
X121437400Y-88290400D03*
X129057400Y-85750400D03*
X121437400Y-85750400D03*
X129057400Y-88290400D03*
D11*
X121437400Y-83210400D03*
D12*
X139954000Y-85623400D03*
X139954000Y-93243400D03*
X136753600Y-85648800D03*
X136753600Y-93268800D03*
X133121400Y-85648800D03*
X133121400Y-93268800D03*
X129768600Y-76657200D03*
X122148600Y-76657200D03*
D13*
X139166600Y-98323400D03*
X136626600Y-98323400D03*
D14*
X134086600Y-98323400D03*
D15*
X125120400Y-96545400D03*
D16*
X125120400Y-101625400D03*
D17*
X137871200Y-81737200D03*
D18*
X135331200Y-81737200D03*
D19*
X134518400Y-102971600D03*
D20*
X138328400Y-102971600D03*
D21*
X149377400Y-76835000D03*
D12*
X149377400Y-84455000D03*
D22*
X155727400Y-84455000D03*
D23*
X160807400Y-76835000D03*
X158267400Y-84455000D03*
X158267400Y-76835000D03*
X160807400Y-84455000D03*
X155727400Y-76835000D03*
D22*
X155727400Y-97155000D03*
D23*
X160807400Y-89535000D03*
X158267400Y-97155000D03*
X158267400Y-89535000D03*
X160807400Y-97155000D03*
X155727400Y-89535000D03*
X155727400Y-102235000D03*
X160807400Y-109855000D03*
X158267400Y-102235000D03*
X158267400Y-109855000D03*
X160807400Y-102235000D03*
D22*
X155727400Y-109855000D03*
D24*
X171958000Y-70866000D03*
X174498000Y-70866000D03*
X177038000Y-70866000D03*
X179578000Y-70866000D03*
X182118000Y-70866000D03*
X184658000Y-70866000D03*
X187198000Y-70866000D03*
X189738000Y-70866000D03*
X149098000Y-70866000D03*
X151638000Y-70866000D03*
X154178000Y-70866000D03*
X156718000Y-70866000D03*
X159258000Y-70866000D03*
X161798000Y-70866000D03*
X164338000Y-70866000D03*
X166878000Y-70866000D03*
X122174000Y-70866000D03*
X124714000Y-70866000D03*
X127254000Y-70866000D03*
X129794000Y-70866000D03*
X132334000Y-70866000D03*
X134874000Y-70866000D03*
X137414000Y-70866000D03*
X139954000Y-70866000D03*
X142494000Y-70866000D03*
X145034000Y-70866000D03*
X177038000Y-119126000D03*
X179578000Y-119126000D03*
X182118000Y-119126000D03*
X184658000Y-119126000D03*
X187198000Y-119126000D03*
X189738000Y-119126000D03*
X192278000Y-119126000D03*
X194818000Y-119126000D03*
X154178000Y-119126000D03*
X156718000Y-119126000D03*
X159258000Y-119126000D03*
X161798000Y-119126000D03*
X164338000Y-119126000D03*
X166878000Y-119126000D03*
X169418000Y-119126000D03*
X171958000Y-119126000D03*
X131318000Y-119126000D03*
X133858000Y-119126000D03*
X136398000Y-119126000D03*
X138938000Y-119126000D03*
X141478000Y-119126000D03*
X144018000Y-119126000D03*
X146558000Y-119126000D03*
X149098000Y-119126000D03*
D19*
X189382400Y-107315000D03*
D20*
X189382400Y-103505000D03*
D19*
X189382400Y-94615000D03*
D20*
X189382400Y-90805000D03*
D19*
X189382400Y-81915000D03*
D20*
X189382400Y-78105000D03*
D12*
X178587400Y-106045000D03*
X170967400Y-106045000D03*
X178587400Y-93345000D03*
X170967400Y-93345000D03*
X178587400Y-80645000D03*
X170967400Y-80645000D03*
X170967400Y-109855000D03*
X178587400Y-109855000D03*
X170967400Y-97155000D03*
X178587400Y-97155000D03*
X170967400Y-84455000D03*
X178587400Y-84455000D03*
X170967400Y-102235000D03*
X178587400Y-102235000D03*
X170967400Y-89535000D03*
X178587400Y-89535000D03*
X170967400Y-76835000D03*
X178587400Y-76835000D03*
X149377400Y-102235000D03*
X149377400Y-109855000D03*
D21*
X149377400Y-89535000D03*
D12*
X149377400Y-97155000D03*
D17*
X167792400Y-76835000D03*
D12*
X165252400Y-76835000D03*
D17*
X167792400Y-89535000D03*
D12*
X165252400Y-89535000D03*
D17*
X167792400Y-102235000D03*
D12*
X165252400Y-102235000D03*
D16*
X197002400Y-78105000D03*
D15*
X197002400Y-83185000D03*
X197002400Y-95885000D03*
D16*
X197002400Y-90805000D03*
X197002400Y-103505000D03*
D15*
X197002400Y-108585000D03*
X125095000Y-108585000D03*
D16*
X125095000Y-113665000D03*
D25*
X184302400Y-83185000D03*
D26*
X184302400Y-80645000D03*
X184302400Y-78105000D03*
X184302400Y-90805000D03*
X184302400Y-93345000D03*
D25*
X184302400Y-95885000D03*
D26*
X184302400Y-103505000D03*
X184302400Y-106045000D03*
D25*
X184302400Y-108585000D03*
D27*
X139928600Y-93268800D02*
X139954000Y-93243400D01*
X136753600Y-93268800D02*
X139928600Y-93268800D01*
X139166600Y-96323400D02*
X139960600Y-95529400D01*
X139166600Y-98323400D02*
X139166600Y-96323400D01*
X139954000Y-95522800D02*
X139954000Y-93243400D01*
X139960600Y-95529400D02*
X139954000Y-95522800D01*
X139166600Y-98323400D02*
X139268200Y-98323400D01*
X139268200Y-98323400D02*
X142468600Y-101523800D01*
X125095000Y-108585000D02*
X126594999Y-110084999D01*
X142468600Y-101523800D02*
X142468600Y-109220000D01*
X142468600Y-109220000D02*
X142468600Y-112471200D01*
X134874000Y-73380600D02*
X134874000Y-70866000D01*
X133680200Y-74574400D02*
X134874000Y-73380600D01*
X129768600Y-76657200D02*
X131851400Y-74574400D01*
X131851400Y-74574400D02*
X133680200Y-74574400D01*
X137414000Y-73132000D02*
X144272000Y-79990000D01*
X137414000Y-70866000D02*
X137414000Y-73132000D01*
X144272000Y-97129600D02*
X149377400Y-102235000D01*
X144272000Y-79990000D02*
X144272000Y-97129600D01*
X139954000Y-73132000D02*
X146253200Y-79431200D01*
X139954000Y-70866000D02*
X139954000Y-73132000D01*
X146253200Y-86410800D02*
X149377400Y-89535000D01*
X146253200Y-79431200D02*
X146253200Y-86410800D01*
X147963187Y-76835000D02*
X149377400Y-76835000D01*
X146197000Y-76835000D02*
X147963187Y-76835000D01*
X142494000Y-73132000D02*
X146197000Y-76835000D01*
X142494000Y-70866000D02*
X142494000Y-73132000D01*
X170967400Y-76835000D02*
X167792400Y-76835000D01*
X160807400Y-76835000D02*
X165252400Y-76835000D01*
X169553187Y-84455000D02*
X169527787Y-84429600D01*
X170967400Y-84455000D02*
X169553187Y-84455000D01*
X169527787Y-84429600D02*
X166598600Y-84429600D01*
X165252400Y-83083400D02*
X165252400Y-76835000D01*
X166598600Y-84429600D02*
X165252400Y-83083400D01*
X170967400Y-89535000D02*
X167792400Y-89535000D01*
X160807400Y-89535000D02*
X165252400Y-89535000D01*
X169553187Y-97155000D02*
X169527787Y-97129600D01*
X170967400Y-97155000D02*
X169553187Y-97155000D01*
X169527787Y-97129600D02*
X166420800Y-97129600D01*
X165252400Y-95961200D02*
X165252400Y-89535000D01*
X166420800Y-97129600D02*
X165252400Y-95961200D01*
X170967400Y-102235000D02*
X167792400Y-102235000D01*
X160807400Y-102235000D02*
X165252400Y-102235000D01*
X169553187Y-109855000D02*
X169502387Y-109804200D01*
X170967400Y-109855000D02*
X169553187Y-109855000D01*
X169502387Y-109804200D02*
X167132000Y-109804200D01*
X165252400Y-107924600D02*
X165252400Y-102235000D01*
X167132000Y-109804200D02*
X165252400Y-107924600D01*
X188112400Y-80645000D02*
X189382400Y-81915000D01*
X184302400Y-80645000D02*
X188112400Y-80645000D01*
X190652400Y-83185000D02*
X197002400Y-83185000D01*
X189382400Y-81915000D02*
X190652400Y-83185000D01*
X138328400Y-105071600D02*
X138328400Y-102971600D01*
X125120400Y-101625400D02*
X125120400Y-104125400D01*
X125120400Y-104125400D02*
X125846200Y-104851200D01*
X125846200Y-104851200D02*
X131292600Y-104851200D01*
X131292600Y-104851200D02*
X132537200Y-106095800D01*
X132537200Y-106095800D02*
X137304200Y-106095800D01*
X137304200Y-106095800D02*
X138328400Y-105071600D01*
X122620400Y-101625400D02*
X125120400Y-101625400D01*
X120929400Y-99934400D02*
X122620400Y-101625400D01*
X129057400Y-85750400D02*
X127926030Y-85750400D01*
X127926030Y-85750400D02*
X126771400Y-86905030D01*
X126771400Y-86905030D02*
X126771400Y-89789000D01*
X126771400Y-89789000D02*
X124891800Y-91668600D01*
X124891800Y-91668600D02*
X122504200Y-91668600D01*
X122504200Y-91668600D02*
X120929400Y-93243400D01*
X199502400Y-103505000D02*
X197002400Y-103505000D01*
X125095000Y-113665000D02*
X135356600Y-113665000D01*
X135356600Y-113665000D02*
X137972800Y-116281200D01*
X137972800Y-116281200D02*
X199059800Y-116281200D01*
X199059800Y-116281200D02*
X201168000Y-114173000D01*
X201168000Y-114173000D02*
X201168000Y-105170600D01*
X201168000Y-105170600D02*
X199502400Y-103505000D01*
X197002400Y-103505000D02*
X189382400Y-103505000D01*
X199669400Y-78105000D02*
X189382400Y-78105000D01*
X201168000Y-79603600D02*
X199669400Y-78105000D01*
X189382400Y-90805000D02*
X197002400Y-90805000D01*
X200518400Y-91821000D02*
X201168000Y-91821000D01*
X199502400Y-90805000D02*
X200518400Y-91821000D01*
X197002400Y-90805000D02*
X199502400Y-90805000D01*
X201168000Y-105170600D02*
X201168000Y-91821000D01*
X201168000Y-91821000D02*
X201168000Y-79603600D01*
X122595000Y-113665000D02*
X121031000Y-112101000D01*
X125095000Y-113665000D02*
X122595000Y-113665000D01*
X121031000Y-99110800D02*
X120929400Y-99009200D01*
X121031000Y-112101000D02*
X121031000Y-99110800D01*
X120929400Y-93243400D02*
X120929400Y-99009200D01*
X120929400Y-99009200D02*
X120929400Y-99934400D01*
X158267400Y-91535000D02*
X158267400Y-89535000D01*
X158267400Y-91744800D02*
X158267400Y-91535000D01*
X159004000Y-92481400D02*
X158267400Y-91744800D01*
X162382200Y-92481400D02*
X159004000Y-92481400D01*
X158267400Y-101371400D02*
X159842200Y-99796600D01*
X159842200Y-99796600D02*
X162915600Y-99796600D01*
X158267400Y-102235000D02*
X158267400Y-101371400D01*
X162915600Y-99796600D02*
X163550600Y-99161600D01*
X163550600Y-99161600D02*
X163550600Y-93649800D01*
X163550600Y-93649800D02*
X162382200Y-92481400D01*
X158267400Y-78835000D02*
X158267400Y-76835000D01*
X158705800Y-79273400D02*
X158267400Y-78835000D01*
X158267400Y-89535000D02*
X158267400Y-88569800D01*
X158267400Y-88569800D02*
X159740600Y-87096600D01*
X162077400Y-79273400D02*
X158705800Y-79273400D01*
X159740600Y-87096600D02*
X162255200Y-87096600D01*
X162255200Y-87096600D02*
X163550600Y-85801200D01*
X163550600Y-85801200D02*
X163550600Y-80746600D01*
X163550600Y-80746600D02*
X162077400Y-79273400D01*
X158267400Y-74835000D02*
X159036000Y-74066400D01*
X158267400Y-76835000D02*
X158267400Y-74835000D01*
X159036000Y-74066400D02*
X188823600Y-74066400D01*
X189382400Y-74625200D02*
X189382400Y-78105000D01*
X188823600Y-74066400D02*
X189382400Y-74625200D01*
X190652400Y-95885000D02*
X189382400Y-94615000D01*
X197002400Y-95885000D02*
X190652400Y-95885000D01*
X188112400Y-93345000D02*
X189382400Y-94615000D01*
X184302400Y-93345000D02*
X188112400Y-93345000D01*
X190652400Y-108585000D02*
X189382400Y-107315000D01*
X197002400Y-108585000D02*
X190652400Y-108585000D01*
X188112400Y-106045000D02*
X189382400Y-107315000D01*
X184302400Y-106045000D02*
X188112400Y-106045000D01*
D28*
X178587400Y-80645000D02*
X178587400Y-84455000D01*
X183032400Y-84455000D02*
X184302400Y-83185000D01*
X178587400Y-84455000D02*
X183032400Y-84455000D01*
X178587400Y-93345000D02*
X178587400Y-97155000D01*
X183032400Y-97155000D02*
X184302400Y-95885000D01*
X178587400Y-97155000D02*
X183032400Y-97155000D01*
X178587400Y-106045000D02*
X178587400Y-109855000D01*
X183032400Y-109855000D02*
X184302400Y-108585000D01*
X178587400Y-109855000D02*
X183032400Y-109855000D01*
D27*
X149377400Y-84455000D02*
X155727400Y-84455000D01*
X149377400Y-97155000D02*
X155727400Y-97155000D01*
X149377400Y-109855000D02*
X155727400Y-109855000D01*
X129794000Y-73132000D02*
X128986600Y-73939400D01*
X129794000Y-70866000D02*
X129794000Y-73132000D01*
X128986600Y-73939400D02*
X127685800Y-73939400D01*
X127685800Y-73939400D02*
X125526800Y-76098400D01*
X123215400Y-85750400D02*
X121437400Y-85750400D01*
X125526800Y-83439000D02*
X123215400Y-85750400D01*
X125526800Y-80314800D02*
X125526800Y-83439000D01*
X125526800Y-76098400D02*
X125526800Y-80314800D01*
X158267400Y-107721400D02*
X158267400Y-109855000D01*
X156692600Y-106146600D02*
X158267400Y-107721400D01*
X153035000Y-106146600D02*
X156692600Y-106146600D01*
X148031200Y-106146600D02*
X153035000Y-106146600D01*
X146608800Y-104724200D02*
X148031200Y-106146600D01*
X146608800Y-102768400D02*
X146608800Y-104724200D01*
X142240000Y-98399600D02*
X146608800Y-102768400D01*
X125526800Y-80314800D02*
X131597400Y-80314800D01*
X142240000Y-82143600D02*
X142240000Y-98399600D01*
X133172200Y-78740000D02*
X139954000Y-78740000D01*
X131597400Y-80314800D02*
X133172200Y-78740000D01*
X139954000Y-78740000D02*
X142265400Y-81051400D01*
X142265400Y-81051400D02*
X142265400Y-82118200D01*
X142265400Y-82118200D02*
X142240000Y-82143600D01*
X153035000Y-100888800D02*
X154228800Y-99695000D01*
X153035000Y-106146600D02*
X153035000Y-100888800D01*
X154228800Y-99695000D02*
X156972000Y-99695000D01*
X156972000Y-99695000D02*
X157073600Y-99695000D01*
X157073600Y-99695000D02*
X158242000Y-98526600D01*
X158267400Y-95155000D02*
X156990800Y-93878400D01*
X158267400Y-97155000D02*
X158267400Y-95155000D01*
X156990800Y-93878400D02*
X154355800Y-93878400D01*
X154355800Y-93878400D02*
X152654000Y-92176600D01*
X152654000Y-92176600D02*
X152654000Y-88468200D01*
X152654000Y-88468200D02*
X154228800Y-86893400D01*
X154228800Y-86893400D02*
X157175200Y-86893400D01*
X157175200Y-86893400D02*
X158038800Y-86029800D01*
X158038800Y-84683600D02*
X158267400Y-84455000D01*
X158038800Y-86029800D02*
X158038800Y-84683600D01*
X136626600Y-100323400D02*
X136626600Y-98323400D01*
X136289800Y-100660200D02*
X136626600Y-100323400D01*
X135274166Y-100660200D02*
X136289800Y-100660200D01*
X134518400Y-101415966D02*
X135274166Y-100660200D01*
X134518400Y-102971600D02*
X134518400Y-101415966D01*
X132435600Y-102971600D02*
X134518400Y-102971600D01*
X130225800Y-100761800D02*
X132435600Y-102971600D01*
X130225800Y-98679000D02*
X130225800Y-100761800D01*
X125120400Y-96545400D02*
X128092200Y-96545400D01*
X128092200Y-96545400D02*
X130225800Y-98679000D01*
X130479800Y-88290400D02*
X133121400Y-85648800D01*
X129057400Y-88290400D02*
X130479800Y-88290400D01*
X133121400Y-83947000D02*
X135331200Y-81737200D01*
X133121400Y-85648800D02*
X133121400Y-83947000D01*
X139771200Y-81737200D02*
X140055600Y-82021600D01*
X137871200Y-81737200D02*
X139771200Y-81737200D01*
X139954000Y-82123200D02*
X139954000Y-85623400D01*
X140055600Y-82021600D02*
X139954000Y-82123200D01*
X133121400Y-93268800D02*
X133121400Y-91490800D01*
X136753600Y-86780170D02*
X136753600Y-85648800D01*
X136753600Y-87858600D02*
X136753600Y-86780170D01*
X133121400Y-91490800D02*
X136753600Y-87858600D01*
X133121400Y-95358200D02*
X133121400Y-93268800D01*
X134086600Y-98323400D02*
X134086600Y-96323400D01*
X134086600Y-96323400D02*
X133121400Y-95358200D01*
X121437400Y-77368400D02*
X122148600Y-76657200D01*
X121437400Y-83210400D02*
X121437400Y-77368400D01*
D28*
G36*
X176787599Y-76060338D02*
G01*
X176671053Y-76426347D01*
X176628151Y-76808060D01*
X176660542Y-77190808D01*
X176766980Y-77559883D01*
X176943377Y-77901101D01*
X176973311Y-77945901D01*
X177334966Y-78016723D01*
X178516689Y-76835000D01*
X178502547Y-76820858D01*
X178573258Y-76750147D01*
X178587400Y-76764289D01*
X178601542Y-76750147D01*
X178672253Y-76820858D01*
X178658111Y-76835000D01*
X179839834Y-78016723D01*
X180201489Y-77945901D01*
X180305214Y-77758102D01*
X182384294Y-77758102D01*
X182590651Y-78055000D01*
X184252400Y-78055000D01*
X184252400Y-76440033D01*
X184352400Y-76440033D01*
X184352400Y-78055000D01*
X186014149Y-78055000D01*
X186220506Y-77758102D01*
X186200385Y-77663310D01*
X186078659Y-77310785D01*
X185890498Y-76988781D01*
X185643132Y-76709673D01*
X185346068Y-76484187D01*
X185010722Y-76320988D01*
X184649981Y-76226347D01*
X184352400Y-76440033D01*
X184252400Y-76440033D01*
X183954819Y-76226347D01*
X183594078Y-76320988D01*
X183258732Y-76484187D01*
X182961668Y-76709673D01*
X182714302Y-76988781D01*
X182526141Y-77310785D01*
X182404415Y-77663310D01*
X182384294Y-77758102D01*
X180305214Y-77758102D01*
X180387201Y-77609662D01*
X180503747Y-77243653D01*
X180546649Y-76861940D01*
X180514258Y-76479192D01*
X180407820Y-76110117D01*
X180255979Y-75816400D01*
X186694000Y-75816400D01*
X186694000Y-78895000D01*
X186080114Y-78895000D01*
X186200385Y-78546690D01*
X186220506Y-78451898D01*
X186014149Y-78155000D01*
X184352400Y-78155000D01*
X184352400Y-78175000D01*
X184252400Y-78175000D01*
X184252400Y-78155000D01*
X182590651Y-78155000D01*
X182384294Y-78451898D01*
X182404415Y-78546690D01*
X182526141Y-78899215D01*
X182656000Y-79121445D01*
X182414728Y-79415436D01*
X182210210Y-79798062D01*
X182084269Y-80213235D01*
X182041744Y-80645000D01*
X182084269Y-81076765D01*
X182210210Y-81491938D01*
X182245544Y-81558044D01*
X182141963Y-81751831D01*
X182070487Y-81987457D01*
X182046352Y-82232500D01*
X182046352Y-82955000D01*
X180269381Y-82955000D01*
X180087400Y-82773019D01*
X180087400Y-82326981D01*
X180335089Y-82079292D01*
X180581324Y-81710775D01*
X180750934Y-81301301D01*
X180837400Y-80866606D01*
X180837400Y-80423394D01*
X180750934Y-79988699D01*
X180581324Y-79579225D01*
X180335089Y-79210708D01*
X180021692Y-78897311D01*
X179653175Y-78651076D01*
X179468587Y-78574617D01*
X179653501Y-78479023D01*
X179698301Y-78449089D01*
X179769123Y-78087434D01*
X178587400Y-76905711D01*
X177405677Y-78087434D01*
X177476499Y-78449089D01*
X177704818Y-78575195D01*
X177521625Y-78651076D01*
X177153108Y-78897311D01*
X176839711Y-79210708D01*
X176593476Y-79579225D01*
X176423866Y-79988699D01*
X176337400Y-80423394D01*
X176337400Y-80866606D01*
X176423866Y-81301301D01*
X176593476Y-81710775D01*
X176839711Y-82079292D01*
X177087400Y-82326981D01*
X177087401Y-82773018D01*
X176839711Y-83020708D01*
X176593476Y-83389225D01*
X176423866Y-83798699D01*
X176337400Y-84233394D01*
X176337400Y-84676606D01*
X176423866Y-85111301D01*
X176593476Y-85520775D01*
X176839711Y-85889292D01*
X177153108Y-86202689D01*
X177521625Y-86448924D01*
X177931099Y-86618534D01*
X178365794Y-86705000D01*
X178809006Y-86705000D01*
X179243701Y-86618534D01*
X179653175Y-86448924D01*
X180021692Y-86202689D01*
X180269381Y-85955000D01*
X182958720Y-85955000D01*
X183032400Y-85962257D01*
X183106080Y-85955000D01*
X183326451Y-85933295D01*
X183609202Y-85847524D01*
X183869787Y-85708238D01*
X184098192Y-85520792D01*
X184145169Y-85463550D01*
X184215171Y-85393548D01*
X185302400Y-85393548D01*
X185547443Y-85369413D01*
X185783069Y-85297937D01*
X186000223Y-85181866D01*
X186190560Y-85025660D01*
X186346766Y-84835323D01*
X186462837Y-84618169D01*
X186534313Y-84382543D01*
X186558448Y-84137500D01*
X186558448Y-82395000D01*
X186694000Y-82395000D01*
X186694000Y-91595000D01*
X186080114Y-91595000D01*
X186200385Y-91246690D01*
X186220506Y-91151898D01*
X186014149Y-90855000D01*
X184352400Y-90855000D01*
X184352400Y-90875000D01*
X184252400Y-90875000D01*
X184252400Y-90855000D01*
X182590651Y-90855000D01*
X182384294Y-91151898D01*
X182404415Y-91246690D01*
X182526141Y-91599215D01*
X182656000Y-91821445D01*
X182414728Y-92115436D01*
X182210210Y-92498062D01*
X182084269Y-92913235D01*
X182041744Y-93345000D01*
X182084269Y-93776765D01*
X182210210Y-94191938D01*
X182245544Y-94258044D01*
X182141963Y-94451831D01*
X182070487Y-94687457D01*
X182046352Y-94932500D01*
X182046352Y-95655000D01*
X180269381Y-95655000D01*
X180087400Y-95473019D01*
X180087400Y-95026981D01*
X180335089Y-94779292D01*
X180581324Y-94410775D01*
X180750934Y-94001301D01*
X180837400Y-93566606D01*
X180837400Y-93123394D01*
X180750934Y-92688699D01*
X180581324Y-92279225D01*
X180335089Y-91910708D01*
X180021692Y-91597311D01*
X179653175Y-91351076D01*
X179468587Y-91274617D01*
X179653501Y-91179023D01*
X179698301Y-91149089D01*
X179769123Y-90787434D01*
X178587400Y-89605711D01*
X177405677Y-90787434D01*
X177476499Y-91149089D01*
X177704818Y-91275195D01*
X177521625Y-91351076D01*
X177153108Y-91597311D01*
X176839711Y-91910708D01*
X176593476Y-92279225D01*
X176423866Y-92688699D01*
X176337400Y-93123394D01*
X176337400Y-93566606D01*
X176423866Y-94001301D01*
X176593476Y-94410775D01*
X176839711Y-94779292D01*
X177087400Y-95026981D01*
X177087401Y-95473018D01*
X176839711Y-95720708D01*
X176593476Y-96089225D01*
X176423866Y-96498699D01*
X176337400Y-96933394D01*
X176337400Y-97376606D01*
X176423866Y-97811301D01*
X176593476Y-98220775D01*
X176839711Y-98589292D01*
X177153108Y-98902689D01*
X177521625Y-99148924D01*
X177931099Y-99318534D01*
X178365794Y-99405000D01*
X178809006Y-99405000D01*
X179243701Y-99318534D01*
X179653175Y-99148924D01*
X180021692Y-98902689D01*
X180269381Y-98655000D01*
X182958720Y-98655000D01*
X183032400Y-98662257D01*
X183106080Y-98655000D01*
X183326451Y-98633295D01*
X183609202Y-98547524D01*
X183869787Y-98408238D01*
X184098192Y-98220792D01*
X184145169Y-98163550D01*
X184215171Y-98093548D01*
X185302400Y-98093548D01*
X185547443Y-98069413D01*
X185783069Y-97997937D01*
X186000223Y-97881866D01*
X186190560Y-97725660D01*
X186346766Y-97535323D01*
X186462837Y-97318169D01*
X186534313Y-97082543D01*
X186558448Y-96837500D01*
X186558448Y-95095000D01*
X186694000Y-95095000D01*
X186694000Y-104295000D01*
X186080114Y-104295000D01*
X186200385Y-103946690D01*
X186220506Y-103851898D01*
X186014149Y-103555000D01*
X184352400Y-103555000D01*
X184352400Y-103575000D01*
X184252400Y-103575000D01*
X184252400Y-103555000D01*
X182590651Y-103555000D01*
X182384294Y-103851898D01*
X182404415Y-103946690D01*
X182526141Y-104299215D01*
X182656000Y-104521445D01*
X182414728Y-104815436D01*
X182210210Y-105198062D01*
X182084269Y-105613235D01*
X182041744Y-106045000D01*
X182084269Y-106476765D01*
X182210210Y-106891938D01*
X182245544Y-106958044D01*
X182141963Y-107151831D01*
X182070487Y-107387457D01*
X182046352Y-107632500D01*
X182046352Y-108355000D01*
X180269381Y-108355000D01*
X180087400Y-108173019D01*
X180087400Y-107726981D01*
X180335089Y-107479292D01*
X180581324Y-107110775D01*
X180750934Y-106701301D01*
X180837400Y-106266606D01*
X180837400Y-105823394D01*
X180750934Y-105388699D01*
X180581324Y-104979225D01*
X180335089Y-104610708D01*
X180021692Y-104297311D01*
X179653175Y-104051076D01*
X179468587Y-103974617D01*
X179653501Y-103879023D01*
X179698301Y-103849089D01*
X179769123Y-103487434D01*
X178587400Y-102305711D01*
X177405677Y-103487434D01*
X177476499Y-103849089D01*
X177704818Y-103975195D01*
X177521625Y-104051076D01*
X177153108Y-104297311D01*
X176839711Y-104610708D01*
X176593476Y-104979225D01*
X176423866Y-105388699D01*
X176337400Y-105823394D01*
X176337400Y-106266606D01*
X176423866Y-106701301D01*
X176593476Y-107110775D01*
X176839711Y-107479292D01*
X177087400Y-107726981D01*
X177087401Y-108173018D01*
X176839711Y-108420708D01*
X176593476Y-108789225D01*
X176423866Y-109198699D01*
X176337400Y-109633394D01*
X176337400Y-110076606D01*
X176423866Y-110511301D01*
X176593476Y-110920775D01*
X176839711Y-111289292D01*
X177153108Y-111602689D01*
X177521625Y-111848924D01*
X177931099Y-112018534D01*
X178365794Y-112105000D01*
X178809006Y-112105000D01*
X179243701Y-112018534D01*
X179653175Y-111848924D01*
X180021692Y-111602689D01*
X180269381Y-111355000D01*
X182958720Y-111355000D01*
X183032400Y-111362257D01*
X183106080Y-111355000D01*
X183326451Y-111333295D01*
X183609202Y-111247524D01*
X183869787Y-111108238D01*
X184098192Y-110920792D01*
X184145169Y-110863550D01*
X184215171Y-110793548D01*
X185302400Y-110793548D01*
X185547443Y-110769413D01*
X185783069Y-110697937D01*
X186000223Y-110581866D01*
X186190560Y-110425660D01*
X186346766Y-110235323D01*
X186462837Y-110018169D01*
X186534313Y-109782543D01*
X186558448Y-109537500D01*
X186558448Y-107795000D01*
X186694000Y-107795000D01*
X186694000Y-114531200D01*
X138697673Y-114531200D01*
X136654829Y-112488356D01*
X136600024Y-112421576D01*
X136333552Y-112202888D01*
X136029536Y-112040388D01*
X135699660Y-111940321D01*
X135442568Y-111915000D01*
X135442565Y-111915000D01*
X135356600Y-111906533D01*
X135270635Y-111915000D01*
X127825409Y-111915000D01*
X127755437Y-111684331D01*
X127639366Y-111467177D01*
X127483160Y-111276840D01*
X127292823Y-111120634D01*
X127075669Y-111004563D01*
X126840043Y-110933087D01*
X126595000Y-110908952D01*
X125880505Y-110908952D01*
X125993825Y-110876910D01*
X126423683Y-110657520D01*
X126501293Y-110605661D01*
X126632104Y-110192814D01*
X125095000Y-108655711D01*
X123557896Y-110192814D01*
X123688707Y-110605661D01*
X124109940Y-110841189D01*
X124318974Y-110908952D01*
X123595000Y-110908952D01*
X123349957Y-110933087D01*
X123114331Y-111004563D01*
X122897177Y-111120634D01*
X122781000Y-111215978D01*
X122781000Y-109405702D01*
X122803090Y-109483825D01*
X123022480Y-109913683D01*
X123074339Y-109991293D01*
X123487186Y-110122104D01*
X125024289Y-108585000D01*
X125165711Y-108585000D01*
X126702814Y-110122104D01*
X127115661Y-109991293D01*
X127351189Y-109570060D01*
X127500013Y-109110971D01*
X127556413Y-108631670D01*
X127518223Y-108150576D01*
X127386910Y-107686175D01*
X127167520Y-107256317D01*
X127115661Y-107178707D01*
X126702814Y-107047896D01*
X125165711Y-108585000D01*
X125024289Y-108585000D01*
X123487186Y-107047896D01*
X123074339Y-107178707D01*
X122838811Y-107599940D01*
X122781000Y-107778274D01*
X122781000Y-106860500D01*
X122815384Y-106747628D01*
X122885831Y-106616919D01*
X122980685Y-106502682D01*
X123096215Y-106409408D01*
X123227875Y-106340768D01*
X123370498Y-106299455D01*
X123530908Y-106286060D01*
X124189309Y-106296594D01*
X123766317Y-106512480D01*
X123688707Y-106564339D01*
X123557896Y-106977186D01*
X125095000Y-108514289D01*
X126632104Y-106977186D01*
X126512972Y-106601200D01*
X128997931Y-106601200D01*
X130730089Y-108239219D01*
X130748032Y-108254645D01*
X130897084Y-108370992D01*
X130936929Y-108396425D01*
X131105218Y-108482636D01*
X131149141Y-108500115D01*
X131330649Y-108553105D01*
X131377074Y-108562003D01*
X131565312Y-108579880D01*
X131588948Y-108581000D01*
X142777119Y-108581000D01*
X142935483Y-108596598D01*
X143075950Y-108639207D01*
X143205404Y-108708402D01*
X143318875Y-108801525D01*
X143411998Y-108914996D01*
X143481193Y-109044450D01*
X143523802Y-109184917D01*
X143539400Y-109343281D01*
X143539400Y-111246788D01*
X143540597Y-111271226D01*
X143559709Y-111465802D01*
X143569220Y-111513747D01*
X143625827Y-111700885D01*
X143644485Y-111746062D01*
X143736423Y-111918609D01*
X143763513Y-111959292D01*
X143887267Y-112110653D01*
X143921757Y-112145288D01*
X144072597Y-112269676D01*
X144113166Y-112296937D01*
X144285325Y-112389598D01*
X144330423Y-112408445D01*
X144517322Y-112465837D01*
X144565226Y-112475549D01*
X144759720Y-112495478D01*
X144784154Y-112496778D01*
X166984918Y-112589960D01*
X167009575Y-112588845D01*
X167205922Y-112570220D01*
X167254312Y-112560745D01*
X167443184Y-112503945D01*
X167488771Y-112485158D01*
X167662822Y-112392394D01*
X167703835Y-112365026D01*
X167856294Y-112239906D01*
X167891139Y-112205019D01*
X168016076Y-112052410D01*
X168043395Y-112011364D01*
X168135950Y-111837202D01*
X168154683Y-111791591D01*
X168211255Y-111602651D01*
X168220671Y-111554253D01*
X168220676Y-111554200D01*
X169126134Y-111554200D01*
X169210127Y-111579679D01*
X169467219Y-111605000D01*
X169467221Y-111605000D01*
X169548556Y-111613011D01*
X169901625Y-111848924D01*
X170311099Y-112018534D01*
X170745794Y-112105000D01*
X171189006Y-112105000D01*
X171623701Y-112018534D01*
X172033175Y-111848924D01*
X172401692Y-111602689D01*
X172715089Y-111289292D01*
X172961324Y-110920775D01*
X173130934Y-110511301D01*
X173217400Y-110076606D01*
X173217400Y-109633394D01*
X173130934Y-109198699D01*
X172961324Y-108789225D01*
X172715089Y-108420708D01*
X172401692Y-108107311D01*
X172033175Y-107861076D01*
X171848587Y-107784617D01*
X172033501Y-107689023D01*
X172078301Y-107659089D01*
X172149123Y-107297434D01*
X170967400Y-106115711D01*
X169785677Y-107297434D01*
X169856499Y-107659089D01*
X170084818Y-107785195D01*
X169901625Y-107861076D01*
X169609480Y-108056281D01*
X169588355Y-108054200D01*
X169588352Y-108054200D01*
X169502387Y-108045733D01*
X169416422Y-108054200D01*
X168222445Y-108054200D01*
X168211454Y-106018060D01*
X169008151Y-106018060D01*
X169040542Y-106400808D01*
X169146980Y-106769883D01*
X169323377Y-107111101D01*
X169353311Y-107155901D01*
X169714966Y-107226723D01*
X170896689Y-106045000D01*
X171038111Y-106045000D01*
X172219834Y-107226723D01*
X172581489Y-107155901D01*
X172767201Y-106819662D01*
X172883747Y-106453653D01*
X172926649Y-106071940D01*
X172894258Y-105689192D01*
X172787820Y-105320117D01*
X172611423Y-104978899D01*
X172581489Y-104934099D01*
X172219834Y-104863277D01*
X171038111Y-106045000D01*
X170896689Y-106045000D01*
X169714966Y-104863277D01*
X169353311Y-104934099D01*
X169167599Y-105270338D01*
X169051053Y-105636347D01*
X169008151Y-106018060D01*
X168211454Y-106018060D01*
X168202671Y-104391048D01*
X168692400Y-104391048D01*
X168937443Y-104366913D01*
X169173069Y-104295437D01*
X169390223Y-104179366D01*
X169580560Y-104023160D01*
X169585206Y-104017499D01*
X169901625Y-104228924D01*
X170086213Y-104305383D01*
X169901299Y-104400977D01*
X169856499Y-104430911D01*
X169785677Y-104792566D01*
X170967400Y-105974289D01*
X172149123Y-104792566D01*
X172078301Y-104430911D01*
X171849982Y-104304805D01*
X172033175Y-104228924D01*
X172401692Y-103982689D01*
X172715089Y-103669292D01*
X172961324Y-103300775D01*
X173130934Y-102891301D01*
X173217400Y-102456606D01*
X173217400Y-102208060D01*
X176628151Y-102208060D01*
X176660542Y-102590808D01*
X176766980Y-102959883D01*
X176943377Y-103301101D01*
X176973311Y-103345901D01*
X177334966Y-103416723D01*
X178516689Y-102235000D01*
X178658111Y-102235000D01*
X179839834Y-103416723D01*
X180201489Y-103345901D01*
X180305214Y-103158102D01*
X182384294Y-103158102D01*
X182590651Y-103455000D01*
X184252400Y-103455000D01*
X184252400Y-101840033D01*
X184352400Y-101840033D01*
X184352400Y-103455000D01*
X186014149Y-103455000D01*
X186220506Y-103158102D01*
X186200385Y-103063310D01*
X186078659Y-102710785D01*
X185890498Y-102388781D01*
X185643132Y-102109673D01*
X185346068Y-101884187D01*
X185010722Y-101720988D01*
X184649981Y-101626347D01*
X184352400Y-101840033D01*
X184252400Y-101840033D01*
X183954819Y-101626347D01*
X183594078Y-101720988D01*
X183258732Y-101884187D01*
X182961668Y-102109673D01*
X182714302Y-102388781D01*
X182526141Y-102710785D01*
X182404415Y-103063310D01*
X182384294Y-103158102D01*
X180305214Y-103158102D01*
X180387201Y-103009662D01*
X180503747Y-102643653D01*
X180546649Y-102261940D01*
X180514258Y-101879192D01*
X180407820Y-101510117D01*
X180231423Y-101168899D01*
X180201489Y-101124099D01*
X179839834Y-101053277D01*
X178658111Y-102235000D01*
X178516689Y-102235000D01*
X177334966Y-101053277D01*
X176973311Y-101124099D01*
X176787599Y-101460338D01*
X176671053Y-101826347D01*
X176628151Y-102208060D01*
X173217400Y-102208060D01*
X173217400Y-102013394D01*
X173130934Y-101578699D01*
X172961324Y-101169225D01*
X172836603Y-100982566D01*
X177405677Y-100982566D01*
X178587400Y-102164289D01*
X179769123Y-100982566D01*
X179698301Y-100620911D01*
X179362062Y-100435199D01*
X178996053Y-100318653D01*
X178614340Y-100275751D01*
X178231592Y-100308142D01*
X177862517Y-100414580D01*
X177521299Y-100590977D01*
X177476499Y-100620911D01*
X177405677Y-100982566D01*
X172836603Y-100982566D01*
X172715089Y-100800708D01*
X172401692Y-100487311D01*
X172033175Y-100241076D01*
X171623701Y-100071466D01*
X171189006Y-99985000D01*
X170745794Y-99985000D01*
X170311099Y-100071466D01*
X169901625Y-100241076D01*
X169585206Y-100452501D01*
X169580560Y-100446840D01*
X169390223Y-100290634D01*
X169173069Y-100174563D01*
X168937443Y-100103087D01*
X168692400Y-100078952D01*
X168179394Y-100078952D01*
X168172920Y-98879600D01*
X169209867Y-98879600D01*
X169210127Y-98879679D01*
X169467219Y-98905000D01*
X169467221Y-98905000D01*
X169548556Y-98913011D01*
X169901625Y-99148924D01*
X170311099Y-99318534D01*
X170745794Y-99405000D01*
X171189006Y-99405000D01*
X171623701Y-99318534D01*
X172033175Y-99148924D01*
X172401692Y-98902689D01*
X172715089Y-98589292D01*
X172961324Y-98220775D01*
X173130934Y-97811301D01*
X173217400Y-97376606D01*
X173217400Y-96933394D01*
X173130934Y-96498699D01*
X172961324Y-96089225D01*
X172715089Y-95720708D01*
X172401692Y-95407311D01*
X172033175Y-95161076D01*
X171848587Y-95084617D01*
X172033501Y-94989023D01*
X172078301Y-94959089D01*
X172149123Y-94597434D01*
X170967400Y-93415711D01*
X169785677Y-94597434D01*
X169856499Y-94959089D01*
X170084818Y-95085195D01*
X169901625Y-95161076D01*
X169579613Y-95376237D01*
X169527787Y-95371133D01*
X169441822Y-95379600D01*
X168154027Y-95379600D01*
X168142899Y-93318060D01*
X169008151Y-93318060D01*
X169040542Y-93700808D01*
X169146980Y-94069883D01*
X169323377Y-94411101D01*
X169353311Y-94455901D01*
X169714966Y-94526723D01*
X170896689Y-93345000D01*
X171038111Y-93345000D01*
X172219834Y-94526723D01*
X172581489Y-94455901D01*
X172767201Y-94119662D01*
X172883747Y-93753653D01*
X172926649Y-93371940D01*
X172894258Y-92989192D01*
X172787820Y-92620117D01*
X172611423Y-92278899D01*
X172581489Y-92234099D01*
X172219834Y-92163277D01*
X171038111Y-93345000D01*
X170896689Y-93345000D01*
X169714966Y-92163277D01*
X169353311Y-92234099D01*
X169167599Y-92570338D01*
X169051053Y-92936347D01*
X169008151Y-93318060D01*
X168142899Y-93318060D01*
X168134115Y-91691048D01*
X168692400Y-91691048D01*
X168937443Y-91666913D01*
X169173069Y-91595437D01*
X169390223Y-91479366D01*
X169580560Y-91323160D01*
X169585206Y-91317499D01*
X169901625Y-91528924D01*
X170086213Y-91605383D01*
X169901299Y-91700977D01*
X169856499Y-91730911D01*
X169785677Y-92092566D01*
X170967400Y-93274289D01*
X172149123Y-92092566D01*
X172078301Y-91730911D01*
X171849982Y-91604805D01*
X172033175Y-91528924D01*
X172401692Y-91282689D01*
X172715089Y-90969292D01*
X172961324Y-90600775D01*
X173130934Y-90191301D01*
X173217400Y-89756606D01*
X173217400Y-89508060D01*
X176628151Y-89508060D01*
X176660542Y-89890808D01*
X176766980Y-90259883D01*
X176943377Y-90601101D01*
X176973311Y-90645901D01*
X177334966Y-90716723D01*
X178516689Y-89535000D01*
X178658111Y-89535000D01*
X179839834Y-90716723D01*
X180201489Y-90645901D01*
X180305214Y-90458102D01*
X182384294Y-90458102D01*
X182590651Y-90755000D01*
X184252400Y-90755000D01*
X184252400Y-89140033D01*
X184352400Y-89140033D01*
X184352400Y-90755000D01*
X186014149Y-90755000D01*
X186220506Y-90458102D01*
X186200385Y-90363310D01*
X186078659Y-90010785D01*
X185890498Y-89688781D01*
X185643132Y-89409673D01*
X185346068Y-89184187D01*
X185010722Y-89020988D01*
X184649981Y-88926347D01*
X184352400Y-89140033D01*
X184252400Y-89140033D01*
X183954819Y-88926347D01*
X183594078Y-89020988D01*
X183258732Y-89184187D01*
X182961668Y-89409673D01*
X182714302Y-89688781D01*
X182526141Y-90010785D01*
X182404415Y-90363310D01*
X182384294Y-90458102D01*
X180305214Y-90458102D01*
X180387201Y-90309662D01*
X180503747Y-89943653D01*
X180546649Y-89561940D01*
X180514258Y-89179192D01*
X180407820Y-88810117D01*
X180231423Y-88468899D01*
X180201489Y-88424099D01*
X179839834Y-88353277D01*
X178658111Y-89535000D01*
X178516689Y-89535000D01*
X177334966Y-88353277D01*
X176973311Y-88424099D01*
X176787599Y-88760338D01*
X176671053Y-89126347D01*
X176628151Y-89508060D01*
X173217400Y-89508060D01*
X173217400Y-89313394D01*
X173130934Y-88878699D01*
X172961324Y-88469225D01*
X172836603Y-88282566D01*
X177405677Y-88282566D01*
X178587400Y-89464289D01*
X179769123Y-88282566D01*
X179698301Y-87920911D01*
X179362062Y-87735199D01*
X178996053Y-87618653D01*
X178614340Y-87575751D01*
X178231592Y-87608142D01*
X177862517Y-87714580D01*
X177521299Y-87890977D01*
X177476499Y-87920911D01*
X177405677Y-88282566D01*
X172836603Y-88282566D01*
X172715089Y-88100708D01*
X172401692Y-87787311D01*
X172033175Y-87541076D01*
X171623701Y-87371466D01*
X171189006Y-87285000D01*
X170745794Y-87285000D01*
X170311099Y-87371466D01*
X169901625Y-87541076D01*
X169585206Y-87752501D01*
X169580560Y-87746840D01*
X169390223Y-87590634D01*
X169173069Y-87474563D01*
X168937443Y-87403087D01*
X168692400Y-87378952D01*
X168110838Y-87378952D01*
X168104364Y-86179600D01*
X169209867Y-86179600D01*
X169210127Y-86179679D01*
X169467219Y-86205000D01*
X169467221Y-86205000D01*
X169548556Y-86213011D01*
X169901625Y-86448924D01*
X170311099Y-86618534D01*
X170745794Y-86705000D01*
X171189006Y-86705000D01*
X171623701Y-86618534D01*
X172033175Y-86448924D01*
X172401692Y-86202689D01*
X172715089Y-85889292D01*
X172961324Y-85520775D01*
X173130934Y-85111301D01*
X173217400Y-84676606D01*
X173217400Y-84233394D01*
X173130934Y-83798699D01*
X172961324Y-83389225D01*
X172715089Y-83020708D01*
X172401692Y-82707311D01*
X172033175Y-82461076D01*
X171848587Y-82384617D01*
X172033501Y-82289023D01*
X172078301Y-82259089D01*
X172149123Y-81897434D01*
X170967400Y-80715711D01*
X169785677Y-81897434D01*
X169856499Y-82259089D01*
X170084818Y-82385195D01*
X169901625Y-82461076D01*
X169579613Y-82676237D01*
X169527787Y-82671133D01*
X169441822Y-82679600D01*
X168085471Y-82679600D01*
X168074343Y-80618060D01*
X169008151Y-80618060D01*
X169040542Y-81000808D01*
X169146980Y-81369883D01*
X169323377Y-81711101D01*
X169353311Y-81755901D01*
X169714966Y-81826723D01*
X170896689Y-80645000D01*
X171038111Y-80645000D01*
X172219834Y-81826723D01*
X172581489Y-81755901D01*
X172767201Y-81419662D01*
X172883747Y-81053653D01*
X172926649Y-80671940D01*
X172894258Y-80289192D01*
X172787820Y-79920117D01*
X172611423Y-79578899D01*
X172581489Y-79534099D01*
X172219834Y-79463277D01*
X171038111Y-80645000D01*
X170896689Y-80645000D01*
X169714966Y-79463277D01*
X169353311Y-79534099D01*
X169167599Y-79870338D01*
X169051053Y-80236347D01*
X169008151Y-80618060D01*
X168074343Y-80618060D01*
X168065559Y-78991048D01*
X168692400Y-78991048D01*
X168937443Y-78966913D01*
X169173069Y-78895437D01*
X169390223Y-78779366D01*
X169580560Y-78623160D01*
X169585206Y-78617499D01*
X169901625Y-78828924D01*
X170086213Y-78905383D01*
X169901299Y-79000977D01*
X169856499Y-79030911D01*
X169785677Y-79392566D01*
X170967400Y-80574289D01*
X172149123Y-79392566D01*
X172078301Y-79030911D01*
X171849982Y-78904805D01*
X172033175Y-78828924D01*
X172401692Y-78582689D01*
X172715089Y-78269292D01*
X172961324Y-77900775D01*
X173130934Y-77491301D01*
X173217400Y-77056606D01*
X173217400Y-76613394D01*
X173130934Y-76178699D01*
X172980865Y-75816400D01*
X176922331Y-75816400D01*
X176787599Y-76060338D01*
X176787599Y-76060338D01*
G37*
X176787599Y-76060338D02*
X176671053Y-76426347D01*
X176628151Y-76808060D01*
X176660542Y-77190808D01*
X176766980Y-77559883D01*
X176943377Y-77901101D01*
X176973311Y-77945901D01*
X177334966Y-78016723D01*
X178516689Y-76835000D01*
X178502547Y-76820858D01*
X178573258Y-76750147D01*
X178587400Y-76764289D01*
X178601542Y-76750147D01*
X178672253Y-76820858D01*
X178658111Y-76835000D01*
X179839834Y-78016723D01*
X180201489Y-77945901D01*
X180305214Y-77758102D01*
X182384294Y-77758102D01*
X182590651Y-78055000D01*
X184252400Y-78055000D01*
X184252400Y-76440033D01*
X184352400Y-76440033D01*
X184352400Y-78055000D01*
X186014149Y-78055000D01*
X186220506Y-77758102D01*
X186200385Y-77663310D01*
X186078659Y-77310785D01*
X185890498Y-76988781D01*
X185643132Y-76709673D01*
X185346068Y-76484187D01*
X185010722Y-76320988D01*
X184649981Y-76226347D01*
X184352400Y-76440033D01*
X184252400Y-76440033D01*
X183954819Y-76226347D01*
X183594078Y-76320988D01*
X183258732Y-76484187D01*
X182961668Y-76709673D01*
X182714302Y-76988781D01*
X182526141Y-77310785D01*
X182404415Y-77663310D01*
X182384294Y-77758102D01*
X180305214Y-77758102D01*
X180387201Y-77609662D01*
X180503747Y-77243653D01*
X180546649Y-76861940D01*
X180514258Y-76479192D01*
X180407820Y-76110117D01*
X180255979Y-75816400D01*
X186694000Y-75816400D01*
X186694000Y-78895000D01*
X186080114Y-78895000D01*
X186200385Y-78546690D01*
X186220506Y-78451898D01*
X186014149Y-78155000D01*
X184352400Y-78155000D01*
X184352400Y-78175000D01*
X184252400Y-78175000D01*
X184252400Y-78155000D01*
X182590651Y-78155000D01*
X182384294Y-78451898D01*
X182404415Y-78546690D01*
X182526141Y-78899215D01*
X182656000Y-79121445D01*
X182414728Y-79415436D01*
X182210210Y-79798062D01*
X182084269Y-80213235D01*
X182041744Y-80645000D01*
X182084269Y-81076765D01*
X182210210Y-81491938D01*
X182245544Y-81558044D01*
X182141963Y-81751831D01*
X182070487Y-81987457D01*
X182046352Y-82232500D01*
X182046352Y-82955000D01*
X180269381Y-82955000D01*
X180087400Y-82773019D01*
X180087400Y-82326981D01*
X180335089Y-82079292D01*
X180581324Y-81710775D01*
X180750934Y-81301301D01*
X180837400Y-80866606D01*
X180837400Y-80423394D01*
X180750934Y-79988699D01*
X180581324Y-79579225D01*
X180335089Y-79210708D01*
X180021692Y-78897311D01*
X179653175Y-78651076D01*
X179468587Y-78574617D01*
X179653501Y-78479023D01*
X179698301Y-78449089D01*
X179769123Y-78087434D01*
X178587400Y-76905711D01*
X177405677Y-78087434D01*
X177476499Y-78449089D01*
X177704818Y-78575195D01*
X177521625Y-78651076D01*
X177153108Y-78897311D01*
X176839711Y-79210708D01*
X176593476Y-79579225D01*
X176423866Y-79988699D01*
X176337400Y-80423394D01*
X176337400Y-80866606D01*
X176423866Y-81301301D01*
X176593476Y-81710775D01*
X176839711Y-82079292D01*
X177087400Y-82326981D01*
X177087401Y-82773018D01*
X176839711Y-83020708D01*
X176593476Y-83389225D01*
X176423866Y-83798699D01*
X176337400Y-84233394D01*
X176337400Y-84676606D01*
X176423866Y-85111301D01*
X176593476Y-85520775D01*
X176839711Y-85889292D01*
X177153108Y-86202689D01*
X177521625Y-86448924D01*
X177931099Y-86618534D01*
X178365794Y-86705000D01*
X178809006Y-86705000D01*
X179243701Y-86618534D01*
X179653175Y-86448924D01*
X180021692Y-86202689D01*
X180269381Y-85955000D01*
X182958720Y-85955000D01*
X183032400Y-85962257D01*
X183106080Y-85955000D01*
X183326451Y-85933295D01*
X183609202Y-85847524D01*
X183869787Y-85708238D01*
X184098192Y-85520792D01*
X184145169Y-85463550D01*
X184215171Y-85393548D01*
X185302400Y-85393548D01*
X185547443Y-85369413D01*
X185783069Y-85297937D01*
X186000223Y-85181866D01*
X186190560Y-85025660D01*
X186346766Y-84835323D01*
X186462837Y-84618169D01*
X186534313Y-84382543D01*
X186558448Y-84137500D01*
X186558448Y-82395000D01*
X186694000Y-82395000D01*
X186694000Y-91595000D01*
X186080114Y-91595000D01*
X186200385Y-91246690D01*
X186220506Y-91151898D01*
X186014149Y-90855000D01*
X184352400Y-90855000D01*
X184352400Y-90875000D01*
X184252400Y-90875000D01*
X184252400Y-90855000D01*
X182590651Y-90855000D01*
X182384294Y-91151898D01*
X182404415Y-91246690D01*
X182526141Y-91599215D01*
X182656000Y-91821445D01*
X182414728Y-92115436D01*
X182210210Y-92498062D01*
X182084269Y-92913235D01*
X182041744Y-93345000D01*
X182084269Y-93776765D01*
X182210210Y-94191938D01*
X182245544Y-94258044D01*
X182141963Y-94451831D01*
X182070487Y-94687457D01*
X182046352Y-94932500D01*
X182046352Y-95655000D01*
X180269381Y-95655000D01*
X180087400Y-95473019D01*
X180087400Y-95026981D01*
X180335089Y-94779292D01*
X180581324Y-94410775D01*
X180750934Y-94001301D01*
X180837400Y-93566606D01*
X180837400Y-93123394D01*
X180750934Y-92688699D01*
X180581324Y-92279225D01*
X180335089Y-91910708D01*
X180021692Y-91597311D01*
X179653175Y-91351076D01*
X179468587Y-91274617D01*
X179653501Y-91179023D01*
X179698301Y-91149089D01*
X179769123Y-90787434D01*
X178587400Y-89605711D01*
X177405677Y-90787434D01*
X177476499Y-91149089D01*
X177704818Y-91275195D01*
X177521625Y-91351076D01*
X177153108Y-91597311D01*
X176839711Y-91910708D01*
X176593476Y-92279225D01*
X176423866Y-92688699D01*
X176337400Y-93123394D01*
X176337400Y-93566606D01*
X176423866Y-94001301D01*
X176593476Y-94410775D01*
X176839711Y-94779292D01*
X177087400Y-95026981D01*
X177087401Y-95473018D01*
X176839711Y-95720708D01*
X176593476Y-96089225D01*
X176423866Y-96498699D01*
X176337400Y-96933394D01*
X176337400Y-97376606D01*
X176423866Y-97811301D01*
X176593476Y-98220775D01*
X176839711Y-98589292D01*
X177153108Y-98902689D01*
X177521625Y-99148924D01*
X177931099Y-99318534D01*
X178365794Y-99405000D01*
X178809006Y-99405000D01*
X179243701Y-99318534D01*
X179653175Y-99148924D01*
X180021692Y-98902689D01*
X180269381Y-98655000D01*
X182958720Y-98655000D01*
X183032400Y-98662257D01*
X183106080Y-98655000D01*
X183326451Y-98633295D01*
X183609202Y-98547524D01*
X183869787Y-98408238D01*
X184098192Y-98220792D01*
X184145169Y-98163550D01*
X184215171Y-98093548D01*
X185302400Y-98093548D01*
X185547443Y-98069413D01*
X185783069Y-97997937D01*
X186000223Y-97881866D01*
X186190560Y-97725660D01*
X186346766Y-97535323D01*
X186462837Y-97318169D01*
X186534313Y-97082543D01*
X186558448Y-96837500D01*
X186558448Y-95095000D01*
X186694000Y-95095000D01*
X186694000Y-104295000D01*
X186080114Y-104295000D01*
X186200385Y-103946690D01*
X186220506Y-103851898D01*
X186014149Y-103555000D01*
X184352400Y-103555000D01*
X184352400Y-103575000D01*
X184252400Y-103575000D01*
X184252400Y-103555000D01*
X182590651Y-103555000D01*
X182384294Y-103851898D01*
X182404415Y-103946690D01*
X182526141Y-104299215D01*
X182656000Y-104521445D01*
X182414728Y-104815436D01*
X182210210Y-105198062D01*
X182084269Y-105613235D01*
X182041744Y-106045000D01*
X182084269Y-106476765D01*
X182210210Y-106891938D01*
X182245544Y-106958044D01*
X182141963Y-107151831D01*
X182070487Y-107387457D01*
X182046352Y-107632500D01*
X182046352Y-108355000D01*
X180269381Y-108355000D01*
X180087400Y-108173019D01*
X180087400Y-107726981D01*
X180335089Y-107479292D01*
X180581324Y-107110775D01*
X180750934Y-106701301D01*
X180837400Y-106266606D01*
X180837400Y-105823394D01*
X180750934Y-105388699D01*
X180581324Y-104979225D01*
X180335089Y-104610708D01*
X180021692Y-104297311D01*
X179653175Y-104051076D01*
X179468587Y-103974617D01*
X179653501Y-103879023D01*
X179698301Y-103849089D01*
X179769123Y-103487434D01*
X178587400Y-102305711D01*
X177405677Y-103487434D01*
X177476499Y-103849089D01*
X177704818Y-103975195D01*
X177521625Y-104051076D01*
X177153108Y-104297311D01*
X176839711Y-104610708D01*
X176593476Y-104979225D01*
X176423866Y-105388699D01*
X176337400Y-105823394D01*
X176337400Y-106266606D01*
X176423866Y-106701301D01*
X176593476Y-107110775D01*
X176839711Y-107479292D01*
X177087400Y-107726981D01*
X177087401Y-108173018D01*
X176839711Y-108420708D01*
X176593476Y-108789225D01*
X176423866Y-109198699D01*
X176337400Y-109633394D01*
X176337400Y-110076606D01*
X176423866Y-110511301D01*
X176593476Y-110920775D01*
X176839711Y-111289292D01*
X177153108Y-111602689D01*
X177521625Y-111848924D01*
X177931099Y-112018534D01*
X178365794Y-112105000D01*
X178809006Y-112105000D01*
X179243701Y-112018534D01*
X179653175Y-111848924D01*
X180021692Y-111602689D01*
X180269381Y-111355000D01*
X182958720Y-111355000D01*
X183032400Y-111362257D01*
X183106080Y-111355000D01*
X183326451Y-111333295D01*
X183609202Y-111247524D01*
X183869787Y-111108238D01*
X184098192Y-110920792D01*
X184145169Y-110863550D01*
X184215171Y-110793548D01*
X185302400Y-110793548D01*
X185547443Y-110769413D01*
X185783069Y-110697937D01*
X186000223Y-110581866D01*
X186190560Y-110425660D01*
X186346766Y-110235323D01*
X186462837Y-110018169D01*
X186534313Y-109782543D01*
X186558448Y-109537500D01*
X186558448Y-107795000D01*
X186694000Y-107795000D01*
X186694000Y-114531200D01*
X138697673Y-114531200D01*
X136654829Y-112488356D01*
X136600024Y-112421576D01*
X136333552Y-112202888D01*
X136029536Y-112040388D01*
X135699660Y-111940321D01*
X135442568Y-111915000D01*
X135442565Y-111915000D01*
X135356600Y-111906533D01*
X135270635Y-111915000D01*
X127825409Y-111915000D01*
X127755437Y-111684331D01*
X127639366Y-111467177D01*
X127483160Y-111276840D01*
X127292823Y-111120634D01*
X127075669Y-111004563D01*
X126840043Y-110933087D01*
X126595000Y-110908952D01*
X125880505Y-110908952D01*
X125993825Y-110876910D01*
X126423683Y-110657520D01*
X126501293Y-110605661D01*
X126632104Y-110192814D01*
X125095000Y-108655711D01*
X123557896Y-110192814D01*
X123688707Y-110605661D01*
X124109940Y-110841189D01*
X124318974Y-110908952D01*
X123595000Y-110908952D01*
X123349957Y-110933087D01*
X123114331Y-111004563D01*
X122897177Y-111120634D01*
X122781000Y-111215978D01*
X122781000Y-109405702D01*
X122803090Y-109483825D01*
X123022480Y-109913683D01*
X123074339Y-109991293D01*
X123487186Y-110122104D01*
X125024289Y-108585000D01*
X125165711Y-108585000D01*
X126702814Y-110122104D01*
X127115661Y-109991293D01*
X127351189Y-109570060D01*
X127500013Y-109110971D01*
X127556413Y-108631670D01*
X127518223Y-108150576D01*
X127386910Y-107686175D01*
X127167520Y-107256317D01*
X127115661Y-107178707D01*
X126702814Y-107047896D01*
X125165711Y-108585000D01*
X125024289Y-108585000D01*
X123487186Y-107047896D01*
X123074339Y-107178707D01*
X122838811Y-107599940D01*
X122781000Y-107778274D01*
X122781000Y-106860500D01*
X122815384Y-106747628D01*
X122885831Y-106616919D01*
X122980685Y-106502682D01*
X123096215Y-106409408D01*
X123227875Y-106340768D01*
X123370498Y-106299455D01*
X123530908Y-106286060D01*
X124189309Y-106296594D01*
X123766317Y-106512480D01*
X123688707Y-106564339D01*
X123557896Y-106977186D01*
X125095000Y-108514289D01*
X126632104Y-106977186D01*
X126512972Y-106601200D01*
X128997931Y-106601200D01*
X130730089Y-108239219D01*
X130748032Y-108254645D01*
X130897084Y-108370992D01*
X130936929Y-108396425D01*
X131105218Y-108482636D01*
X131149141Y-108500115D01*
X131330649Y-108553105D01*
X131377074Y-108562003D01*
X131565312Y-108579880D01*
X131588948Y-108581000D01*
X142777119Y-108581000D01*
X142935483Y-108596598D01*
X143075950Y-108639207D01*
X143205404Y-108708402D01*
X143318875Y-108801525D01*
X143411998Y-108914996D01*
X143481193Y-109044450D01*
X143523802Y-109184917D01*
X143539400Y-109343281D01*
X143539400Y-111246788D01*
X143540597Y-111271226D01*
X143559709Y-111465802D01*
X143569220Y-111513747D01*
X143625827Y-111700885D01*
X143644485Y-111746062D01*
X143736423Y-111918609D01*
X143763513Y-111959292D01*
X143887267Y-112110653D01*
X143921757Y-112145288D01*
X144072597Y-112269676D01*
X144113166Y-112296937D01*
X144285325Y-112389598D01*
X144330423Y-112408445D01*
X144517322Y-112465837D01*
X144565226Y-112475549D01*
X144759720Y-112495478D01*
X144784154Y-112496778D01*
X166984918Y-112589960D01*
X167009575Y-112588845D01*
X167205922Y-112570220D01*
X167254312Y-112560745D01*
X167443184Y-112503945D01*
X167488771Y-112485158D01*
X167662822Y-112392394D01*
X167703835Y-112365026D01*
X167856294Y-112239906D01*
X167891139Y-112205019D01*
X168016076Y-112052410D01*
X168043395Y-112011364D01*
X168135950Y-111837202D01*
X168154683Y-111791591D01*
X168211255Y-111602651D01*
X168220671Y-111554253D01*
X168220676Y-111554200D01*
X169126134Y-111554200D01*
X169210127Y-111579679D01*
X169467219Y-111605000D01*
X169467221Y-111605000D01*
X169548556Y-111613011D01*
X169901625Y-111848924D01*
X170311099Y-112018534D01*
X170745794Y-112105000D01*
X171189006Y-112105000D01*
X171623701Y-112018534D01*
X172033175Y-111848924D01*
X172401692Y-111602689D01*
X172715089Y-111289292D01*
X172961324Y-110920775D01*
X173130934Y-110511301D01*
X173217400Y-110076606D01*
X173217400Y-109633394D01*
X173130934Y-109198699D01*
X172961324Y-108789225D01*
X172715089Y-108420708D01*
X172401692Y-108107311D01*
X172033175Y-107861076D01*
X171848587Y-107784617D01*
X172033501Y-107689023D01*
X172078301Y-107659089D01*
X172149123Y-107297434D01*
X170967400Y-106115711D01*
X169785677Y-107297434D01*
X169856499Y-107659089D01*
X170084818Y-107785195D01*
X169901625Y-107861076D01*
X169609480Y-108056281D01*
X169588355Y-108054200D01*
X169588352Y-108054200D01*
X169502387Y-108045733D01*
X169416422Y-108054200D01*
X168222445Y-108054200D01*
X168211454Y-106018060D01*
X169008151Y-106018060D01*
X169040542Y-106400808D01*
X169146980Y-106769883D01*
X169323377Y-107111101D01*
X169353311Y-107155901D01*
X169714966Y-107226723D01*
X170896689Y-106045000D01*
X171038111Y-106045000D01*
X172219834Y-107226723D01*
X172581489Y-107155901D01*
X172767201Y-106819662D01*
X172883747Y-106453653D01*
X172926649Y-106071940D01*
X172894258Y-105689192D01*
X172787820Y-105320117D01*
X172611423Y-104978899D01*
X172581489Y-104934099D01*
X172219834Y-104863277D01*
X171038111Y-106045000D01*
X170896689Y-106045000D01*
X169714966Y-104863277D01*
X169353311Y-104934099D01*
X169167599Y-105270338D01*
X169051053Y-105636347D01*
X169008151Y-106018060D01*
X168211454Y-106018060D01*
X168202671Y-104391048D01*
X168692400Y-104391048D01*
X168937443Y-104366913D01*
X169173069Y-104295437D01*
X169390223Y-104179366D01*
X169580560Y-104023160D01*
X169585206Y-104017499D01*
X169901625Y-104228924D01*
X170086213Y-104305383D01*
X169901299Y-104400977D01*
X169856499Y-104430911D01*
X169785677Y-104792566D01*
X170967400Y-105974289D01*
X172149123Y-104792566D01*
X172078301Y-104430911D01*
X171849982Y-104304805D01*
X172033175Y-104228924D01*
X172401692Y-103982689D01*
X172715089Y-103669292D01*
X172961324Y-103300775D01*
X173130934Y-102891301D01*
X173217400Y-102456606D01*
X173217400Y-102208060D01*
X176628151Y-102208060D01*
X176660542Y-102590808D01*
X176766980Y-102959883D01*
X176943377Y-103301101D01*
X176973311Y-103345901D01*
X177334966Y-103416723D01*
X178516689Y-102235000D01*
X178658111Y-102235000D01*
X179839834Y-103416723D01*
X180201489Y-103345901D01*
X180305214Y-103158102D01*
X182384294Y-103158102D01*
X182590651Y-103455000D01*
X184252400Y-103455000D01*
X184252400Y-101840033D01*
X184352400Y-101840033D01*
X184352400Y-103455000D01*
X186014149Y-103455000D01*
X186220506Y-103158102D01*
X186200385Y-103063310D01*
X186078659Y-102710785D01*
X185890498Y-102388781D01*
X185643132Y-102109673D01*
X185346068Y-101884187D01*
X185010722Y-101720988D01*
X184649981Y-101626347D01*
X184352400Y-101840033D01*
X184252400Y-101840033D01*
X183954819Y-101626347D01*
X183594078Y-101720988D01*
X183258732Y-101884187D01*
X182961668Y-102109673D01*
X182714302Y-102388781D01*
X182526141Y-102710785D01*
X182404415Y-103063310D01*
X182384294Y-103158102D01*
X180305214Y-103158102D01*
X180387201Y-103009662D01*
X180503747Y-102643653D01*
X180546649Y-102261940D01*
X180514258Y-101879192D01*
X180407820Y-101510117D01*
X180231423Y-101168899D01*
X180201489Y-101124099D01*
X179839834Y-101053277D01*
X178658111Y-102235000D01*
X178516689Y-102235000D01*
X177334966Y-101053277D01*
X176973311Y-101124099D01*
X176787599Y-101460338D01*
X176671053Y-101826347D01*
X176628151Y-102208060D01*
X173217400Y-102208060D01*
X173217400Y-102013394D01*
X173130934Y-101578699D01*
X172961324Y-101169225D01*
X172836603Y-100982566D01*
X177405677Y-100982566D01*
X178587400Y-102164289D01*
X179769123Y-100982566D01*
X179698301Y-100620911D01*
X179362062Y-100435199D01*
X178996053Y-100318653D01*
X178614340Y-100275751D01*
X178231592Y-100308142D01*
X177862517Y-100414580D01*
X177521299Y-100590977D01*
X177476499Y-100620911D01*
X177405677Y-100982566D01*
X172836603Y-100982566D01*
X172715089Y-100800708D01*
X172401692Y-100487311D01*
X172033175Y-100241076D01*
X171623701Y-100071466D01*
X171189006Y-99985000D01*
X170745794Y-99985000D01*
X170311099Y-100071466D01*
X169901625Y-100241076D01*
X169585206Y-100452501D01*
X169580560Y-100446840D01*
X169390223Y-100290634D01*
X169173069Y-100174563D01*
X168937443Y-100103087D01*
X168692400Y-100078952D01*
X168179394Y-100078952D01*
X168172920Y-98879600D01*
X169209867Y-98879600D01*
X169210127Y-98879679D01*
X169467219Y-98905000D01*
X169467221Y-98905000D01*
X169548556Y-98913011D01*
X169901625Y-99148924D01*
X170311099Y-99318534D01*
X170745794Y-99405000D01*
X171189006Y-99405000D01*
X171623701Y-99318534D01*
X172033175Y-99148924D01*
X172401692Y-98902689D01*
X172715089Y-98589292D01*
X172961324Y-98220775D01*
X173130934Y-97811301D01*
X173217400Y-97376606D01*
X173217400Y-96933394D01*
X173130934Y-96498699D01*
X172961324Y-96089225D01*
X172715089Y-95720708D01*
X172401692Y-95407311D01*
X172033175Y-95161076D01*
X171848587Y-95084617D01*
X172033501Y-94989023D01*
X172078301Y-94959089D01*
X172149123Y-94597434D01*
X170967400Y-93415711D01*
X169785677Y-94597434D01*
X169856499Y-94959089D01*
X170084818Y-95085195D01*
X169901625Y-95161076D01*
X169579613Y-95376237D01*
X169527787Y-95371133D01*
X169441822Y-95379600D01*
X168154027Y-95379600D01*
X168142899Y-93318060D01*
X169008151Y-93318060D01*
X169040542Y-93700808D01*
X169146980Y-94069883D01*
X169323377Y-94411101D01*
X169353311Y-94455901D01*
X169714966Y-94526723D01*
X170896689Y-93345000D01*
X171038111Y-93345000D01*
X172219834Y-94526723D01*
X172581489Y-94455901D01*
X172767201Y-94119662D01*
X172883747Y-93753653D01*
X172926649Y-93371940D01*
X172894258Y-92989192D01*
X172787820Y-92620117D01*
X172611423Y-92278899D01*
X172581489Y-92234099D01*
X172219834Y-92163277D01*
X171038111Y-93345000D01*
X170896689Y-93345000D01*
X169714966Y-92163277D01*
X169353311Y-92234099D01*
X169167599Y-92570338D01*
X169051053Y-92936347D01*
X169008151Y-93318060D01*
X168142899Y-93318060D01*
X168134115Y-91691048D01*
X168692400Y-91691048D01*
X168937443Y-91666913D01*
X169173069Y-91595437D01*
X169390223Y-91479366D01*
X169580560Y-91323160D01*
X169585206Y-91317499D01*
X169901625Y-91528924D01*
X170086213Y-91605383D01*
X169901299Y-91700977D01*
X169856499Y-91730911D01*
X169785677Y-92092566D01*
X170967400Y-93274289D01*
X172149123Y-92092566D01*
X172078301Y-91730911D01*
X171849982Y-91604805D01*
X172033175Y-91528924D01*
X172401692Y-91282689D01*
X172715089Y-90969292D01*
X172961324Y-90600775D01*
X173130934Y-90191301D01*
X173217400Y-89756606D01*
X173217400Y-89508060D01*
X176628151Y-89508060D01*
X176660542Y-89890808D01*
X176766980Y-90259883D01*
X176943377Y-90601101D01*
X176973311Y-90645901D01*
X177334966Y-90716723D01*
X178516689Y-89535000D01*
X178658111Y-89535000D01*
X179839834Y-90716723D01*
X180201489Y-90645901D01*
X180305214Y-90458102D01*
X182384294Y-90458102D01*
X182590651Y-90755000D01*
X184252400Y-90755000D01*
X184252400Y-89140033D01*
X184352400Y-89140033D01*
X184352400Y-90755000D01*
X186014149Y-90755000D01*
X186220506Y-90458102D01*
X186200385Y-90363310D01*
X186078659Y-90010785D01*
X185890498Y-89688781D01*
X185643132Y-89409673D01*
X185346068Y-89184187D01*
X185010722Y-89020988D01*
X184649981Y-88926347D01*
X184352400Y-89140033D01*
X184252400Y-89140033D01*
X183954819Y-88926347D01*
X183594078Y-89020988D01*
X183258732Y-89184187D01*
X182961668Y-89409673D01*
X182714302Y-89688781D01*
X182526141Y-90010785D01*
X182404415Y-90363310D01*
X182384294Y-90458102D01*
X180305214Y-90458102D01*
X180387201Y-90309662D01*
X180503747Y-89943653D01*
X180546649Y-89561940D01*
X180514258Y-89179192D01*
X180407820Y-88810117D01*
X180231423Y-88468899D01*
X180201489Y-88424099D01*
X179839834Y-88353277D01*
X178658111Y-89535000D01*
X178516689Y-89535000D01*
X177334966Y-88353277D01*
X176973311Y-88424099D01*
X176787599Y-88760338D01*
X176671053Y-89126347D01*
X176628151Y-89508060D01*
X173217400Y-89508060D01*
X173217400Y-89313394D01*
X173130934Y-88878699D01*
X172961324Y-88469225D01*
X172836603Y-88282566D01*
X177405677Y-88282566D01*
X178587400Y-89464289D01*
X179769123Y-88282566D01*
X179698301Y-87920911D01*
X179362062Y-87735199D01*
X178996053Y-87618653D01*
X178614340Y-87575751D01*
X178231592Y-87608142D01*
X177862517Y-87714580D01*
X177521299Y-87890977D01*
X177476499Y-87920911D01*
X177405677Y-88282566D01*
X172836603Y-88282566D01*
X172715089Y-88100708D01*
X172401692Y-87787311D01*
X172033175Y-87541076D01*
X171623701Y-87371466D01*
X171189006Y-87285000D01*
X170745794Y-87285000D01*
X170311099Y-87371466D01*
X169901625Y-87541076D01*
X169585206Y-87752501D01*
X169580560Y-87746840D01*
X169390223Y-87590634D01*
X169173069Y-87474563D01*
X168937443Y-87403087D01*
X168692400Y-87378952D01*
X168110838Y-87378952D01*
X168104364Y-86179600D01*
X169209867Y-86179600D01*
X169210127Y-86179679D01*
X169467219Y-86205000D01*
X169467221Y-86205000D01*
X169548556Y-86213011D01*
X169901625Y-86448924D01*
X170311099Y-86618534D01*
X170745794Y-86705000D01*
X171189006Y-86705000D01*
X171623701Y-86618534D01*
X172033175Y-86448924D01*
X172401692Y-86202689D01*
X172715089Y-85889292D01*
X172961324Y-85520775D01*
X173130934Y-85111301D01*
X173217400Y-84676606D01*
X173217400Y-84233394D01*
X173130934Y-83798699D01*
X172961324Y-83389225D01*
X172715089Y-83020708D01*
X172401692Y-82707311D01*
X172033175Y-82461076D01*
X171848587Y-82384617D01*
X172033501Y-82289023D01*
X172078301Y-82259089D01*
X172149123Y-81897434D01*
X170967400Y-80715711D01*
X169785677Y-81897434D01*
X169856499Y-82259089D01*
X170084818Y-82385195D01*
X169901625Y-82461076D01*
X169579613Y-82676237D01*
X169527787Y-82671133D01*
X169441822Y-82679600D01*
X168085471Y-82679600D01*
X168074343Y-80618060D01*
X169008151Y-80618060D01*
X169040542Y-81000808D01*
X169146980Y-81369883D01*
X169323377Y-81711101D01*
X169353311Y-81755901D01*
X169714966Y-81826723D01*
X170896689Y-80645000D01*
X171038111Y-80645000D01*
X172219834Y-81826723D01*
X172581489Y-81755901D01*
X172767201Y-81419662D01*
X172883747Y-81053653D01*
X172926649Y-80671940D01*
X172894258Y-80289192D01*
X172787820Y-79920117D01*
X172611423Y-79578899D01*
X172581489Y-79534099D01*
X172219834Y-79463277D01*
X171038111Y-80645000D01*
X170896689Y-80645000D01*
X169714966Y-79463277D01*
X169353311Y-79534099D01*
X169167599Y-79870338D01*
X169051053Y-80236347D01*
X169008151Y-80618060D01*
X168074343Y-80618060D01*
X168065559Y-78991048D01*
X168692400Y-78991048D01*
X168937443Y-78966913D01*
X169173069Y-78895437D01*
X169390223Y-78779366D01*
X169580560Y-78623160D01*
X169585206Y-78617499D01*
X169901625Y-78828924D01*
X170086213Y-78905383D01*
X169901299Y-79000977D01*
X169856499Y-79030911D01*
X169785677Y-79392566D01*
X170967400Y-80574289D01*
X172149123Y-79392566D01*
X172078301Y-79030911D01*
X171849982Y-78904805D01*
X172033175Y-78828924D01*
X172401692Y-78582689D01*
X172715089Y-78269292D01*
X172961324Y-77900775D01*
X173130934Y-77491301D01*
X173217400Y-77056606D01*
X173217400Y-76613394D01*
X173130934Y-76178699D01*
X172980865Y-75816400D01*
X176922331Y-75816400D01*
X176787599Y-76060338D01*
M02*
