G04 #@! TF.GenerationSoftware,KiCad,Pcbnew,(5.1.0)-1*
G04 #@! TF.CreationDate,2021-05-18T23:18:49-03:00*
G04 #@! TF.ProjectId,Arduino_Mega_Solenoid_Shield_r01,41726475-696e-46f5-9f4d-6567615f536f,rev?*
G04 #@! TF.SameCoordinates,Original*
G04 #@! TF.FileFunction,Legend,Top*
G04 #@! TF.FilePolarity,Positive*
%FSLAX46Y46*%
G04 Gerber Fmt 4.6, Leading zero omitted, Abs format (unit mm)*
G04 Created by KiCad (PCBNEW (5.1.0)-1) date 2021-05-18 23:18:49*
%MOMM*%
%LPD*%
G04 APERTURE LIST*
%ADD10C,0.150000*%
%ADD11C,0.120000*%
G04 APERTURE END LIST*
D10*
X131770380Y-116300285D02*
X131770380Y-116871714D01*
X131770380Y-116586000D02*
X130770380Y-116586000D01*
X130913238Y-116681238D01*
X131008476Y-116776476D01*
X131056095Y-116871714D01*
D11*
X127897400Y-81880400D02*
X126247400Y-81880400D01*
X127897400Y-89620400D02*
X127897400Y-81880400D01*
X122597400Y-89620400D02*
X127897400Y-89620400D01*
X122597400Y-81880400D02*
X122597400Y-89620400D01*
X124247400Y-81880400D02*
X122597400Y-81880400D01*
X126247400Y-81880400D02*
G75*
G02X124247400Y-81880400I-1000000J0D01*
G01*
X141324000Y-86163400D02*
X140994000Y-86163400D01*
X141324000Y-92703400D02*
X141324000Y-86163400D01*
X140994000Y-92703400D02*
X141324000Y-92703400D01*
X138584000Y-86163400D02*
X138914000Y-86163400D01*
X138584000Y-92703400D02*
X138584000Y-86163400D01*
X138914000Y-92703400D02*
X138584000Y-92703400D01*
X138123600Y-86188800D02*
X137793600Y-86188800D01*
X138123600Y-92728800D02*
X138123600Y-86188800D01*
X137793600Y-92728800D02*
X138123600Y-92728800D01*
X135383600Y-86188800D02*
X135713600Y-86188800D01*
X135383600Y-92728800D02*
X135383600Y-86188800D01*
X135713600Y-92728800D02*
X135383600Y-92728800D01*
X134491400Y-86188800D02*
X134161400Y-86188800D01*
X134491400Y-92728800D02*
X134491400Y-86188800D01*
X134161400Y-92728800D02*
X134491400Y-92728800D01*
X131751400Y-86188800D02*
X132081400Y-86188800D01*
X131751400Y-92728800D02*
X131751400Y-86188800D01*
X132081400Y-92728800D02*
X131751400Y-92728800D01*
X129228600Y-78027200D02*
X129228600Y-77697200D01*
X122688600Y-78027200D02*
X129228600Y-78027200D01*
X122688600Y-77697200D02*
X122688600Y-78027200D01*
X129228600Y-75287200D02*
X129228600Y-75617200D01*
X122688600Y-75287200D02*
X129228600Y-75287200D01*
X122688600Y-75617200D02*
X122688600Y-75287200D01*
X138477600Y-95053400D02*
X138477600Y-96563400D01*
X134776600Y-95053400D02*
X134776600Y-96563400D01*
X131506600Y-96563400D02*
X141746600Y-96563400D01*
X141746600Y-95053400D02*
X141746600Y-99694400D01*
X131506600Y-95053400D02*
X131506600Y-99694400D01*
X131506600Y-99694400D02*
X141746600Y-99694400D01*
X131506600Y-95053400D02*
X141746600Y-95053400D01*
X128930400Y-104165400D02*
X128930400Y-94005400D01*
X121310400Y-104165400D02*
X128930400Y-104165400D01*
X121310400Y-94005400D02*
X121310400Y-104165400D01*
X128930400Y-94005400D02*
X121310400Y-94005400D01*
X127660400Y-94005400D02*
X127660400Y-104165400D01*
X134928865Y-82815808D02*
G75*
G03X138161200Y-82972716I1672335J1078608D01*
G01*
X134928865Y-80658592D02*
G75*
G02X138161200Y-80501684I1672335J-1078608D01*
G01*
X135560070Y-82817037D02*
G75*
G03X137642161Y-82817200I1041130J1079837D01*
G01*
X135560070Y-80657363D02*
G75*
G02X137642161Y-80657200I1041130J-1079837D01*
G01*
X138161200Y-82973200D02*
X138161200Y-82817200D01*
X138161200Y-80657200D02*
X138161200Y-80501200D01*
X136269035Y-102971600D02*
X136928400Y-102971600D01*
X136269035Y-102971600D02*
G75*
G03X136269035Y-102971600I-1750635J0D01*
G01*
X150747400Y-77375000D02*
X150417400Y-77375000D01*
X150747400Y-83915000D02*
X150747400Y-77375000D01*
X150417400Y-83915000D02*
X150747400Y-83915000D01*
X148007400Y-77375000D02*
X148337400Y-77375000D01*
X148007400Y-83915000D02*
X148007400Y-77375000D01*
X148337400Y-83915000D02*
X148007400Y-83915000D01*
X154397400Y-79645000D02*
G75*
G02X154397400Y-81645000I0J-1000000D01*
G01*
X154397400Y-81645000D02*
X154397400Y-83295000D01*
X154397400Y-83295000D02*
X162137400Y-83295000D01*
X162137400Y-83295000D02*
X162137400Y-77995000D01*
X162137400Y-77995000D02*
X154397400Y-77995000D01*
X154397400Y-77995000D02*
X154397400Y-79645000D01*
X154397400Y-92345000D02*
G75*
G02X154397400Y-94345000I0J-1000000D01*
G01*
X154397400Y-94345000D02*
X154397400Y-95995000D01*
X154397400Y-95995000D02*
X162137400Y-95995000D01*
X162137400Y-95995000D02*
X162137400Y-90695000D01*
X162137400Y-90695000D02*
X154397400Y-90695000D01*
X154397400Y-90695000D02*
X154397400Y-92345000D01*
X154397400Y-103395000D02*
X154397400Y-105045000D01*
X162137400Y-103395000D02*
X154397400Y-103395000D01*
X162137400Y-108695000D02*
X162137400Y-103395000D01*
X154397400Y-108695000D02*
X162137400Y-108695000D01*
X154397400Y-107045000D02*
X154397400Y-108695000D01*
X154397400Y-105045000D02*
G75*
G02X154397400Y-107045000I0J-1000000D01*
G01*
D10*
X173228000Y-72136000D02*
X191008000Y-72136000D01*
X191008000Y-72136000D02*
X191008000Y-69596000D01*
X191008000Y-69596000D02*
X173228000Y-69596000D01*
X170408000Y-72416000D02*
X171958000Y-72416000D01*
X173228000Y-72136000D02*
X173228000Y-69596000D01*
X171958000Y-69316000D02*
X170408000Y-69316000D01*
X170408000Y-69316000D02*
X170408000Y-72416000D01*
X150368000Y-72136000D02*
X168148000Y-72136000D01*
X168148000Y-72136000D02*
X168148000Y-69596000D01*
X168148000Y-69596000D02*
X150368000Y-69596000D01*
X147548000Y-72416000D02*
X149098000Y-72416000D01*
X150368000Y-72136000D02*
X150368000Y-69596000D01*
X149098000Y-69316000D02*
X147548000Y-69316000D01*
X147548000Y-69316000D02*
X147548000Y-72416000D01*
X123444000Y-72136000D02*
X146304000Y-72136000D01*
X146304000Y-72136000D02*
X146304000Y-69596000D01*
X146304000Y-69596000D02*
X123444000Y-69596000D01*
X120624000Y-72416000D02*
X122174000Y-72416000D01*
X123444000Y-72136000D02*
X123444000Y-69596000D01*
X122174000Y-69316000D02*
X120624000Y-69316000D01*
X120624000Y-69316000D02*
X120624000Y-72416000D01*
X178308000Y-120396000D02*
X196088000Y-120396000D01*
X196088000Y-120396000D02*
X196088000Y-117856000D01*
X196088000Y-117856000D02*
X178308000Y-117856000D01*
X175488000Y-120676000D02*
X177038000Y-120676000D01*
X178308000Y-120396000D02*
X178308000Y-117856000D01*
X177038000Y-117576000D02*
X175488000Y-117576000D01*
X175488000Y-117576000D02*
X175488000Y-120676000D01*
X155448000Y-120396000D02*
X173228000Y-120396000D01*
X173228000Y-120396000D02*
X173228000Y-117856000D01*
X173228000Y-117856000D02*
X155448000Y-117856000D01*
X152628000Y-120676000D02*
X154178000Y-120676000D01*
X155448000Y-120396000D02*
X155448000Y-117856000D01*
X154178000Y-117576000D02*
X152628000Y-117576000D01*
X152628000Y-117576000D02*
X152628000Y-120676000D01*
X132588000Y-120396000D02*
X150368000Y-120396000D01*
X150368000Y-120396000D02*
X150368000Y-117856000D01*
X150368000Y-117856000D02*
X132588000Y-117856000D01*
X129768000Y-120676000D02*
X131318000Y-120676000D01*
X132588000Y-120396000D02*
X132588000Y-117856000D01*
X131318000Y-117576000D02*
X129768000Y-117576000D01*
X129768000Y-117576000D02*
X129768000Y-120676000D01*
D11*
X189382400Y-105564365D02*
X189382400Y-104905000D01*
X191133035Y-107315000D02*
G75*
G03X191133035Y-107315000I-1750635J0D01*
G01*
X189382400Y-92864365D02*
X189382400Y-92205000D01*
X191133035Y-94615000D02*
G75*
G03X191133035Y-94615000I-1750635J0D01*
G01*
X189382400Y-80164365D02*
X189382400Y-79505000D01*
X191133035Y-81915000D02*
G75*
G03X191133035Y-81915000I-1750635J0D01*
G01*
X178047400Y-107415000D02*
X178047400Y-107085000D01*
X171507400Y-107415000D02*
X178047400Y-107415000D01*
X171507400Y-107085000D02*
X171507400Y-107415000D01*
X178047400Y-104675000D02*
X178047400Y-105005000D01*
X171507400Y-104675000D02*
X178047400Y-104675000D01*
X171507400Y-105005000D02*
X171507400Y-104675000D01*
X178047400Y-94715000D02*
X178047400Y-94385000D01*
X171507400Y-94715000D02*
X178047400Y-94715000D01*
X171507400Y-94385000D02*
X171507400Y-94715000D01*
X178047400Y-91975000D02*
X178047400Y-92305000D01*
X171507400Y-91975000D02*
X178047400Y-91975000D01*
X171507400Y-92305000D02*
X171507400Y-91975000D01*
X178047400Y-82015000D02*
X178047400Y-81685000D01*
X171507400Y-82015000D02*
X178047400Y-82015000D01*
X171507400Y-81685000D02*
X171507400Y-82015000D01*
X178047400Y-79275000D02*
X178047400Y-79605000D01*
X171507400Y-79275000D02*
X178047400Y-79275000D01*
X171507400Y-79605000D02*
X171507400Y-79275000D01*
X171507400Y-108485000D02*
X171507400Y-108815000D01*
X178047400Y-108485000D02*
X171507400Y-108485000D01*
X178047400Y-108815000D02*
X178047400Y-108485000D01*
X171507400Y-111225000D02*
X171507400Y-110895000D01*
X178047400Y-111225000D02*
X171507400Y-111225000D01*
X178047400Y-110895000D02*
X178047400Y-111225000D01*
X171507400Y-95785000D02*
X171507400Y-96115000D01*
X178047400Y-95785000D02*
X171507400Y-95785000D01*
X178047400Y-96115000D02*
X178047400Y-95785000D01*
X171507400Y-98525000D02*
X171507400Y-98195000D01*
X178047400Y-98525000D02*
X171507400Y-98525000D01*
X178047400Y-98195000D02*
X178047400Y-98525000D01*
X171507400Y-83085000D02*
X171507400Y-83415000D01*
X178047400Y-83085000D02*
X171507400Y-83085000D01*
X178047400Y-83415000D02*
X178047400Y-83085000D01*
X171507400Y-85825000D02*
X171507400Y-85495000D01*
X178047400Y-85825000D02*
X171507400Y-85825000D01*
X178047400Y-85495000D02*
X178047400Y-85825000D01*
X171507400Y-100865000D02*
X171507400Y-101195000D01*
X178047400Y-100865000D02*
X171507400Y-100865000D01*
X178047400Y-101195000D02*
X178047400Y-100865000D01*
X171507400Y-103605000D02*
X171507400Y-103275000D01*
X178047400Y-103605000D02*
X171507400Y-103605000D01*
X178047400Y-103275000D02*
X178047400Y-103605000D01*
X171507400Y-88165000D02*
X171507400Y-88495000D01*
X178047400Y-88165000D02*
X171507400Y-88165000D01*
X178047400Y-88495000D02*
X178047400Y-88165000D01*
X171507400Y-90905000D02*
X171507400Y-90575000D01*
X178047400Y-90905000D02*
X171507400Y-90905000D01*
X178047400Y-90575000D02*
X178047400Y-90905000D01*
X171507400Y-75465000D02*
X171507400Y-75795000D01*
X178047400Y-75465000D02*
X171507400Y-75465000D01*
X178047400Y-75795000D02*
X178047400Y-75465000D01*
X171507400Y-78205000D02*
X171507400Y-77875000D01*
X178047400Y-78205000D02*
X171507400Y-78205000D01*
X178047400Y-77875000D02*
X178047400Y-78205000D01*
X150747400Y-102775000D02*
X150417400Y-102775000D01*
X150747400Y-109315000D02*
X150747400Y-102775000D01*
X150417400Y-109315000D02*
X150747400Y-109315000D01*
X148007400Y-102775000D02*
X148337400Y-102775000D01*
X148007400Y-109315000D02*
X148007400Y-102775000D01*
X148337400Y-109315000D02*
X148007400Y-109315000D01*
X150747400Y-90075000D02*
X150417400Y-90075000D01*
X150747400Y-96615000D02*
X150747400Y-90075000D01*
X150417400Y-96615000D02*
X150747400Y-96615000D01*
X148007400Y-90075000D02*
X148337400Y-90075000D01*
X148007400Y-96615000D02*
X148007400Y-90075000D01*
X148337400Y-96615000D02*
X148007400Y-96615000D01*
X164850065Y-77913608D02*
G75*
G03X168082400Y-78070516I1672335J1078608D01*
G01*
X164850065Y-75756392D02*
G75*
G02X168082400Y-75599484I1672335J-1078608D01*
G01*
X165481270Y-77914837D02*
G75*
G03X167563361Y-77915000I1041130J1079837D01*
G01*
X165481270Y-75755163D02*
G75*
G02X167563361Y-75755000I1041130J-1079837D01*
G01*
X168082400Y-78071000D02*
X168082400Y-77915000D01*
X168082400Y-75755000D02*
X168082400Y-75599000D01*
X164850065Y-90613608D02*
G75*
G03X168082400Y-90770516I1672335J1078608D01*
G01*
X164850065Y-88456392D02*
G75*
G02X168082400Y-88299484I1672335J-1078608D01*
G01*
X165481270Y-90614837D02*
G75*
G03X167563361Y-90615000I1041130J1079837D01*
G01*
X165481270Y-88455163D02*
G75*
G02X167563361Y-88455000I1041130J-1079837D01*
G01*
X168082400Y-90771000D02*
X168082400Y-90615000D01*
X168082400Y-88455000D02*
X168082400Y-88299000D01*
X164850065Y-103313608D02*
G75*
G03X168082400Y-103470516I1672335J1078608D01*
G01*
X164850065Y-101156392D02*
G75*
G02X168082400Y-100999484I1672335J-1078608D01*
G01*
X165481270Y-103314837D02*
G75*
G03X167563361Y-103315000I1041130J1079837D01*
G01*
X165481270Y-101155163D02*
G75*
G02X167563361Y-101155000I1041130J-1079837D01*
G01*
X168082400Y-103471000D02*
X168082400Y-103315000D01*
X168082400Y-101155000D02*
X168082400Y-100999000D01*
X194462400Y-85725000D02*
X194462400Y-75565000D01*
X193192400Y-85725000D02*
X200812400Y-85725000D01*
X200812400Y-85725000D02*
X200812400Y-75565000D01*
X200812400Y-75565000D02*
X193192400Y-75565000D01*
X193192400Y-75565000D02*
X193192400Y-85725000D01*
X193192400Y-88265000D02*
X193192400Y-98425000D01*
X200812400Y-88265000D02*
X193192400Y-88265000D01*
X200812400Y-98425000D02*
X200812400Y-88265000D01*
X193192400Y-98425000D02*
X200812400Y-98425000D01*
X194462400Y-98425000D02*
X194462400Y-88265000D01*
X194462400Y-111125000D02*
X194462400Y-100965000D01*
X193192400Y-111125000D02*
X200812400Y-111125000D01*
X200812400Y-111125000D02*
X200812400Y-100965000D01*
X200812400Y-100965000D02*
X193192400Y-100965000D01*
X193192400Y-100965000D02*
X193192400Y-111125000D01*
X128905000Y-116205000D02*
X128905000Y-106045000D01*
X121285000Y-116205000D02*
X128905000Y-116205000D01*
X121285000Y-106045000D02*
X121285000Y-116205000D01*
X128905000Y-106045000D02*
X121285000Y-106045000D01*
X127635000Y-106045000D02*
X127635000Y-116205000D01*
X181032400Y-85765000D02*
X181032400Y-75525000D01*
X185673400Y-85765000D02*
X185673400Y-75525000D01*
X181032400Y-85765000D02*
X185673400Y-85765000D01*
X181032400Y-75525000D02*
X185673400Y-75525000D01*
X182542400Y-85765000D02*
X182542400Y-75525000D01*
X181032400Y-82495000D02*
X182542400Y-82495000D01*
X181032400Y-78794000D02*
X182542400Y-78794000D01*
X181032400Y-91494000D02*
X182542400Y-91494000D01*
X181032400Y-95195000D02*
X182542400Y-95195000D01*
X182542400Y-98465000D02*
X182542400Y-88225000D01*
X181032400Y-88225000D02*
X185673400Y-88225000D01*
X181032400Y-98465000D02*
X185673400Y-98465000D01*
X185673400Y-98465000D02*
X185673400Y-88225000D01*
X181032400Y-98465000D02*
X181032400Y-88225000D01*
X181032400Y-104194000D02*
X182542400Y-104194000D01*
X181032400Y-107895000D02*
X182542400Y-107895000D01*
X182542400Y-111165000D02*
X182542400Y-100925000D01*
X181032400Y-100925000D02*
X185673400Y-100925000D01*
X181032400Y-111165000D02*
X185673400Y-111165000D01*
X185673400Y-111165000D02*
X185673400Y-100925000D01*
X181032400Y-111165000D02*
X181032400Y-100925000D01*
D10*
X124485495Y-80332780D02*
X124485495Y-81142304D01*
X124533114Y-81237542D01*
X124580733Y-81285161D01*
X124675971Y-81332780D01*
X124866447Y-81332780D01*
X124961685Y-81285161D01*
X125009304Y-81237542D01*
X125056923Y-81142304D01*
X125056923Y-80332780D01*
X125961685Y-80666114D02*
X125961685Y-81332780D01*
X125723590Y-80285161D02*
X125485495Y-80999447D01*
X126104542Y-80999447D01*
X138036380Y-90076257D02*
X137560190Y-90409590D01*
X138036380Y-90647685D02*
X137036380Y-90647685D01*
X137036380Y-90266733D01*
X137084000Y-90171495D01*
X137131619Y-90123876D01*
X137226857Y-90076257D01*
X137369714Y-90076257D01*
X137464952Y-90123876D01*
X137512571Y-90171495D01*
X137560190Y-90266733D01*
X137560190Y-90647685D01*
X138036380Y-89123876D02*
X138036380Y-89695304D01*
X138036380Y-89409590D02*
X137036380Y-89409590D01*
X137179238Y-89504828D01*
X137274476Y-89600066D01*
X137322095Y-89695304D01*
X137036380Y-88266733D02*
X137036380Y-88457209D01*
X137084000Y-88552447D01*
X137131619Y-88600066D01*
X137274476Y-88695304D01*
X137464952Y-88742923D01*
X137845904Y-88742923D01*
X137941142Y-88695304D01*
X137988761Y-88647685D01*
X138036380Y-88552447D01*
X138036380Y-88361971D01*
X137988761Y-88266733D01*
X137941142Y-88219114D01*
X137845904Y-88171495D01*
X137607809Y-88171495D01*
X137512571Y-88219114D01*
X137464952Y-88266733D01*
X137417333Y-88361971D01*
X137417333Y-88552447D01*
X137464952Y-88647685D01*
X137512571Y-88695304D01*
X137607809Y-88742923D01*
X134835980Y-90101657D02*
X134359790Y-90434990D01*
X134835980Y-90673085D02*
X133835980Y-90673085D01*
X133835980Y-90292133D01*
X133883600Y-90196895D01*
X133931219Y-90149276D01*
X134026457Y-90101657D01*
X134169314Y-90101657D01*
X134264552Y-90149276D01*
X134312171Y-90196895D01*
X134359790Y-90292133D01*
X134359790Y-90673085D01*
X134835980Y-89149276D02*
X134835980Y-89720704D01*
X134835980Y-89434990D02*
X133835980Y-89434990D01*
X133978838Y-89530228D01*
X134074076Y-89625466D01*
X134121695Y-89720704D01*
X133835980Y-88244514D02*
X133835980Y-88720704D01*
X134312171Y-88768323D01*
X134264552Y-88720704D01*
X134216933Y-88625466D01*
X134216933Y-88387371D01*
X134264552Y-88292133D01*
X134312171Y-88244514D01*
X134407409Y-88196895D01*
X134645504Y-88196895D01*
X134740742Y-88244514D01*
X134788361Y-88292133D01*
X134835980Y-88387371D01*
X134835980Y-88625466D01*
X134788361Y-88720704D01*
X134740742Y-88768323D01*
X131203780Y-90101657D02*
X130727590Y-90434990D01*
X131203780Y-90673085D02*
X130203780Y-90673085D01*
X130203780Y-90292133D01*
X130251400Y-90196895D01*
X130299019Y-90149276D01*
X130394257Y-90101657D01*
X130537114Y-90101657D01*
X130632352Y-90149276D01*
X130679971Y-90196895D01*
X130727590Y-90292133D01*
X130727590Y-90673085D01*
X131203780Y-89149276D02*
X131203780Y-89720704D01*
X131203780Y-89434990D02*
X130203780Y-89434990D01*
X130346638Y-89530228D01*
X130441876Y-89625466D01*
X130489495Y-89720704D01*
X130537114Y-88292133D02*
X131203780Y-88292133D01*
X130156161Y-88530228D02*
X130870447Y-88768323D01*
X130870447Y-88149276D01*
X125315742Y-74739580D02*
X124982409Y-74263390D01*
X124744314Y-74739580D02*
X124744314Y-73739580D01*
X125125266Y-73739580D01*
X125220504Y-73787200D01*
X125268123Y-73834819D01*
X125315742Y-73930057D01*
X125315742Y-74072914D01*
X125268123Y-74168152D01*
X125220504Y-74215771D01*
X125125266Y-74263390D01*
X124744314Y-74263390D01*
X126268123Y-74739580D02*
X125696695Y-74739580D01*
X125982409Y-74739580D02*
X125982409Y-73739580D01*
X125887171Y-73882438D01*
X125791933Y-73977676D01*
X125696695Y-74025295D01*
X126601457Y-73739580D02*
X127220504Y-73739580D01*
X126887171Y-74120533D01*
X127030028Y-74120533D01*
X127125266Y-74168152D01*
X127172885Y-74215771D01*
X127220504Y-74311009D01*
X127220504Y-74549104D01*
X127172885Y-74644342D01*
X127125266Y-74691961D01*
X127030028Y-74739580D01*
X126744314Y-74739580D01*
X126649076Y-74691961D01*
X126601457Y-74644342D01*
X136531361Y-94601019D02*
X136436123Y-94553400D01*
X136340885Y-94458161D01*
X136198028Y-94315304D01*
X136102790Y-94267685D01*
X136007552Y-94267685D01*
X136055171Y-94505780D02*
X135959933Y-94458161D01*
X135864695Y-94362923D01*
X135817076Y-94172447D01*
X135817076Y-93839114D01*
X135864695Y-93648638D01*
X135959933Y-93553400D01*
X136055171Y-93505780D01*
X136245647Y-93505780D01*
X136340885Y-93553400D01*
X136436123Y-93648638D01*
X136483742Y-93839114D01*
X136483742Y-94172447D01*
X136436123Y-94362923D01*
X136340885Y-94458161D01*
X136245647Y-94505780D01*
X136055171Y-94505780D01*
X137340885Y-93839114D02*
X137340885Y-94505780D01*
X137102790Y-93458161D02*
X136864695Y-94172447D01*
X137483742Y-94172447D01*
X119492780Y-99418733D02*
X120207066Y-99418733D01*
X120349923Y-99466352D01*
X120445161Y-99561590D01*
X120492780Y-99704447D01*
X120492780Y-99799685D01*
X119492780Y-98466352D02*
X119492780Y-98942542D01*
X119968971Y-98990161D01*
X119921352Y-98942542D01*
X119873733Y-98847304D01*
X119873733Y-98609209D01*
X119921352Y-98513971D01*
X119968971Y-98466352D01*
X120064209Y-98418733D01*
X120302304Y-98418733D01*
X120397542Y-98466352D01*
X120445161Y-98513971D01*
X120492780Y-98609209D01*
X120492780Y-98847304D01*
X120445161Y-98942542D01*
X120397542Y-98990161D01*
X135863104Y-85149580D02*
X135863104Y-84149580D01*
X136101200Y-84149580D01*
X136244057Y-84197200D01*
X136339295Y-84292438D01*
X136386914Y-84387676D01*
X136434533Y-84578152D01*
X136434533Y-84721009D01*
X136386914Y-84911485D01*
X136339295Y-85006723D01*
X136244057Y-85101961D01*
X136101200Y-85149580D01*
X135863104Y-85149580D01*
X137005961Y-84578152D02*
X136910723Y-84530533D01*
X136863104Y-84482914D01*
X136815485Y-84387676D01*
X136815485Y-84340057D01*
X136863104Y-84244819D01*
X136910723Y-84197200D01*
X137005961Y-84149580D01*
X137196438Y-84149580D01*
X137291676Y-84197200D01*
X137339295Y-84244819D01*
X137386914Y-84340057D01*
X137386914Y-84387676D01*
X137339295Y-84482914D01*
X137291676Y-84530533D01*
X137196438Y-84578152D01*
X137005961Y-84578152D01*
X136910723Y-84625771D01*
X136863104Y-84673390D01*
X136815485Y-84768628D01*
X136815485Y-84959104D01*
X136863104Y-85054342D01*
X136910723Y-85101961D01*
X137005961Y-85149580D01*
X137196438Y-85149580D01*
X137291676Y-85101961D01*
X137339295Y-85054342D01*
X137386914Y-84959104D01*
X137386914Y-84768628D01*
X137339295Y-84673390D01*
X137291676Y-84625771D01*
X137196438Y-84578152D01*
X135685304Y-106174615D02*
X135685304Y-105174615D01*
X135923400Y-105174615D01*
X136066257Y-105222235D01*
X136161495Y-105317473D01*
X136209114Y-105412711D01*
X136256733Y-105603187D01*
X136256733Y-105746044D01*
X136209114Y-105936520D01*
X136161495Y-106031758D01*
X136066257Y-106126996D01*
X135923400Y-106174615D01*
X135685304Y-106174615D01*
X136590066Y-105174615D02*
X137256733Y-105174615D01*
X136828161Y-106174615D01*
X136266495Y-102323980D02*
X136266495Y-101323980D01*
X136837923Y-102323980D02*
X136409352Y-101752552D01*
X136837923Y-101323980D02*
X136266495Y-101895409D01*
X146555019Y-80478333D02*
X147031209Y-80145000D01*
X146555019Y-79906904D02*
X147555019Y-79906904D01*
X147555019Y-80287857D01*
X147507400Y-80383095D01*
X147459780Y-80430714D01*
X147364542Y-80478333D01*
X147221685Y-80478333D01*
X147126447Y-80430714D01*
X147078828Y-80383095D01*
X147031209Y-80287857D01*
X147031209Y-79906904D01*
X146555019Y-81430714D02*
X146555019Y-80859285D01*
X146555019Y-81145000D02*
X147555019Y-81145000D01*
X147412161Y-81049761D01*
X147316923Y-80954523D01*
X147269304Y-80859285D01*
X153945019Y-79883095D02*
X153135495Y-79883095D01*
X153040257Y-79930714D01*
X152992638Y-79978333D01*
X152945019Y-80073571D01*
X152945019Y-80264047D01*
X152992638Y-80359285D01*
X153040257Y-80406904D01*
X153135495Y-80454523D01*
X153945019Y-80454523D01*
X152945019Y-81454523D02*
X152945019Y-80883095D01*
X152945019Y-81168809D02*
X153945019Y-81168809D01*
X153802161Y-81073571D01*
X153706923Y-80978333D01*
X153659304Y-80883095D01*
X153945019Y-92583095D02*
X153135495Y-92583095D01*
X153040257Y-92630714D01*
X152992638Y-92678333D01*
X152945019Y-92773571D01*
X152945019Y-92964047D01*
X152992638Y-93059285D01*
X153040257Y-93106904D01*
X153135495Y-93154523D01*
X153945019Y-93154523D01*
X153849780Y-93583095D02*
X153897400Y-93630714D01*
X153945019Y-93725952D01*
X153945019Y-93964047D01*
X153897400Y-94059285D01*
X153849780Y-94106904D01*
X153754542Y-94154523D01*
X153659304Y-94154523D01*
X153516447Y-94106904D01*
X152945019Y-93535476D01*
X152945019Y-94154523D01*
X153945019Y-105283095D02*
X153135495Y-105283095D01*
X153040257Y-105330714D01*
X152992638Y-105378333D01*
X152945019Y-105473571D01*
X152945019Y-105664047D01*
X152992638Y-105759285D01*
X153040257Y-105806904D01*
X153135495Y-105854523D01*
X153945019Y-105854523D01*
X153945019Y-106235476D02*
X153945019Y-106854523D01*
X153564066Y-106521190D01*
X153564066Y-106664047D01*
X153516447Y-106759285D01*
X153468828Y-106806904D01*
X153373590Y-106854523D01*
X153135495Y-106854523D01*
X153040257Y-106806904D01*
X152992638Y-106759285D01*
X152945019Y-106664047D01*
X152945019Y-106378333D01*
X152992638Y-106283095D01*
X153040257Y-106235476D01*
X180109904Y-74112380D02*
X180109904Y-73112380D01*
X180490857Y-73112380D01*
X180586095Y-73160000D01*
X180633714Y-73207619D01*
X180681333Y-73302857D01*
X180681333Y-73445714D01*
X180633714Y-73540952D01*
X180586095Y-73588571D01*
X180490857Y-73636190D01*
X180109904Y-73636190D01*
X181014666Y-73112380D02*
X181681333Y-73112380D01*
X181252761Y-74112380D01*
X157249904Y-74112380D02*
X157249904Y-73112380D01*
X157630857Y-73112380D01*
X157726095Y-73160000D01*
X157773714Y-73207619D01*
X157821333Y-73302857D01*
X157821333Y-73445714D01*
X157773714Y-73540952D01*
X157726095Y-73588571D01*
X157630857Y-73636190D01*
X157249904Y-73636190D01*
X158678476Y-73112380D02*
X158488000Y-73112380D01*
X158392761Y-73160000D01*
X158345142Y-73207619D01*
X158249904Y-73350476D01*
X158202285Y-73540952D01*
X158202285Y-73921904D01*
X158249904Y-74017142D01*
X158297523Y-74064761D01*
X158392761Y-74112380D01*
X158583238Y-74112380D01*
X158678476Y-74064761D01*
X158726095Y-74017142D01*
X158773714Y-73921904D01*
X158773714Y-73683809D01*
X158726095Y-73588571D01*
X158678476Y-73540952D01*
X158583238Y-73493333D01*
X158392761Y-73493333D01*
X158297523Y-73540952D01*
X158249904Y-73588571D01*
X158202285Y-73683809D01*
X132865904Y-74112380D02*
X132865904Y-73112380D01*
X133246857Y-73112380D01*
X133342095Y-73160000D01*
X133389714Y-73207619D01*
X133437333Y-73302857D01*
X133437333Y-73445714D01*
X133389714Y-73540952D01*
X133342095Y-73588571D01*
X133246857Y-73636190D01*
X132865904Y-73636190D01*
X134342095Y-73112380D02*
X133865904Y-73112380D01*
X133818285Y-73588571D01*
X133865904Y-73540952D01*
X133961142Y-73493333D01*
X134199238Y-73493333D01*
X134294476Y-73540952D01*
X134342095Y-73588571D01*
X134389714Y-73683809D01*
X134389714Y-73921904D01*
X134342095Y-74017142D01*
X134294476Y-74064761D01*
X134199238Y-74112380D01*
X133961142Y-74112380D01*
X133865904Y-74064761D01*
X133818285Y-74017142D01*
X185189904Y-116784380D02*
X185189904Y-115784380D01*
X185570857Y-115784380D01*
X185666095Y-115832000D01*
X185713714Y-115879619D01*
X185761333Y-115974857D01*
X185761333Y-116117714D01*
X185713714Y-116212952D01*
X185666095Y-116260571D01*
X185570857Y-116308190D01*
X185189904Y-116308190D01*
X186618476Y-116117714D02*
X186618476Y-116784380D01*
X186380380Y-115736761D02*
X186142285Y-116451047D01*
X186761333Y-116451047D01*
X162329904Y-117038380D02*
X162329904Y-116038380D01*
X162710857Y-116038380D01*
X162806095Y-116086000D01*
X162853714Y-116133619D01*
X162901333Y-116228857D01*
X162901333Y-116371714D01*
X162853714Y-116466952D01*
X162806095Y-116514571D01*
X162710857Y-116562190D01*
X162329904Y-116562190D01*
X163234666Y-116038380D02*
X163853714Y-116038380D01*
X163520380Y-116419333D01*
X163663238Y-116419333D01*
X163758476Y-116466952D01*
X163806095Y-116514571D01*
X163853714Y-116609809D01*
X163853714Y-116847904D01*
X163806095Y-116943142D01*
X163758476Y-116990761D01*
X163663238Y-117038380D01*
X163377523Y-117038380D01*
X163282285Y-116990761D01*
X163234666Y-116943142D01*
X139469904Y-116784380D02*
X139469904Y-115784380D01*
X139850857Y-115784380D01*
X139946095Y-115832000D01*
X139993714Y-115879619D01*
X140041333Y-115974857D01*
X140041333Y-116117714D01*
X139993714Y-116212952D01*
X139946095Y-116260571D01*
X139850857Y-116308190D01*
X139469904Y-116308190D01*
X140422285Y-115879619D02*
X140469904Y-115832000D01*
X140565142Y-115784380D01*
X140803238Y-115784380D01*
X140898476Y-115832000D01*
X140946095Y-115879619D01*
X140993714Y-115974857D01*
X140993714Y-116070095D01*
X140946095Y-116212952D01*
X140374666Y-116784380D01*
X140993714Y-116784380D01*
X192585415Y-106148095D02*
X191585415Y-106148095D01*
X191585415Y-105910000D01*
X191633035Y-105767142D01*
X191728273Y-105671904D01*
X191823511Y-105624285D01*
X192013987Y-105576666D01*
X192156844Y-105576666D01*
X192347320Y-105624285D01*
X192442558Y-105671904D01*
X192537796Y-105767142D01*
X192585415Y-105910000D01*
X192585415Y-106148095D01*
X191585415Y-104719523D02*
X191585415Y-104910000D01*
X191633035Y-105005238D01*
X191680654Y-105052857D01*
X191823511Y-105148095D01*
X192013987Y-105195714D01*
X192394939Y-105195714D01*
X192490177Y-105148095D01*
X192537796Y-105100476D01*
X192585415Y-105005238D01*
X192585415Y-104814761D01*
X192537796Y-104719523D01*
X192490177Y-104671904D01*
X192394939Y-104624285D01*
X192156844Y-104624285D01*
X192061606Y-104671904D01*
X192013987Y-104719523D01*
X191966368Y-104814761D01*
X191966368Y-105005238D01*
X192013987Y-105100476D01*
X192061606Y-105148095D01*
X192156844Y-105195714D01*
X188734780Y-105566904D02*
X187734780Y-105566904D01*
X188734780Y-104995476D02*
X188163352Y-105424047D01*
X187734780Y-104995476D02*
X188306209Y-105566904D01*
X192585415Y-93448095D02*
X191585415Y-93448095D01*
X191585415Y-93210000D01*
X191633035Y-93067142D01*
X191728273Y-92971904D01*
X191823511Y-92924285D01*
X192013987Y-92876666D01*
X192156844Y-92876666D01*
X192347320Y-92924285D01*
X192442558Y-92971904D01*
X192537796Y-93067142D01*
X192585415Y-93210000D01*
X192585415Y-93448095D01*
X191585415Y-91971904D02*
X191585415Y-92448095D01*
X192061606Y-92495714D01*
X192013987Y-92448095D01*
X191966368Y-92352857D01*
X191966368Y-92114761D01*
X192013987Y-92019523D01*
X192061606Y-91971904D01*
X192156844Y-91924285D01*
X192394939Y-91924285D01*
X192490177Y-91971904D01*
X192537796Y-92019523D01*
X192585415Y-92114761D01*
X192585415Y-92352857D01*
X192537796Y-92448095D01*
X192490177Y-92495714D01*
X188734780Y-92866904D02*
X187734780Y-92866904D01*
X188734780Y-92295476D02*
X188163352Y-92724047D01*
X187734780Y-92295476D02*
X188306209Y-92866904D01*
X192585415Y-80748095D02*
X191585415Y-80748095D01*
X191585415Y-80510000D01*
X191633035Y-80367142D01*
X191728273Y-80271904D01*
X191823511Y-80224285D01*
X192013987Y-80176666D01*
X192156844Y-80176666D01*
X192347320Y-80224285D01*
X192442558Y-80271904D01*
X192537796Y-80367142D01*
X192585415Y-80510000D01*
X192585415Y-80748095D01*
X191918749Y-79319523D02*
X192585415Y-79319523D01*
X191537796Y-79557619D02*
X192252082Y-79795714D01*
X192252082Y-79176666D01*
X188734780Y-80166904D02*
X187734780Y-80166904D01*
X188734780Y-79595476D02*
X188163352Y-80024047D01*
X187734780Y-79595476D02*
X188306209Y-80166904D01*
X174134542Y-104127380D02*
X173801209Y-103651190D01*
X173563114Y-104127380D02*
X173563114Y-103127380D01*
X173944066Y-103127380D01*
X174039304Y-103175000D01*
X174086923Y-103222619D01*
X174134542Y-103317857D01*
X174134542Y-103460714D01*
X174086923Y-103555952D01*
X174039304Y-103603571D01*
X173944066Y-103651190D01*
X173563114Y-103651190D01*
X175086923Y-104127380D02*
X174515495Y-104127380D01*
X174801209Y-104127380D02*
X174801209Y-103127380D01*
X174705971Y-103270238D01*
X174610733Y-103365476D01*
X174515495Y-103413095D01*
X175467876Y-103222619D02*
X175515495Y-103175000D01*
X175610733Y-103127380D01*
X175848828Y-103127380D01*
X175944066Y-103175000D01*
X175991685Y-103222619D01*
X176039304Y-103317857D01*
X176039304Y-103413095D01*
X175991685Y-103555952D01*
X175420257Y-104127380D01*
X176039304Y-104127380D01*
X174134542Y-91427380D02*
X173801209Y-90951190D01*
X173563114Y-91427380D02*
X173563114Y-90427380D01*
X173944066Y-90427380D01*
X174039304Y-90475000D01*
X174086923Y-90522619D01*
X174134542Y-90617857D01*
X174134542Y-90760714D01*
X174086923Y-90855952D01*
X174039304Y-90903571D01*
X173944066Y-90951190D01*
X173563114Y-90951190D01*
X175086923Y-91427380D02*
X174515495Y-91427380D01*
X174801209Y-91427380D02*
X174801209Y-90427380D01*
X174705971Y-90570238D01*
X174610733Y-90665476D01*
X174515495Y-90713095D01*
X176039304Y-91427380D02*
X175467876Y-91427380D01*
X175753590Y-91427380D02*
X175753590Y-90427380D01*
X175658352Y-90570238D01*
X175563114Y-90665476D01*
X175467876Y-90713095D01*
X174134542Y-78727380D02*
X173801209Y-78251190D01*
X173563114Y-78727380D02*
X173563114Y-77727380D01*
X173944066Y-77727380D01*
X174039304Y-77775000D01*
X174086923Y-77822619D01*
X174134542Y-77917857D01*
X174134542Y-78060714D01*
X174086923Y-78155952D01*
X174039304Y-78203571D01*
X173944066Y-78251190D01*
X173563114Y-78251190D01*
X175086923Y-78727380D02*
X174515495Y-78727380D01*
X174801209Y-78727380D02*
X174801209Y-77727380D01*
X174705971Y-77870238D01*
X174610733Y-77965476D01*
X174515495Y-78013095D01*
X175705971Y-77727380D02*
X175801209Y-77727380D01*
X175896447Y-77775000D01*
X175944066Y-77822619D01*
X175991685Y-77917857D01*
X176039304Y-78108333D01*
X176039304Y-78346428D01*
X175991685Y-78536904D01*
X175944066Y-78632142D01*
X175896447Y-78679761D01*
X175801209Y-78727380D01*
X175705971Y-78727380D01*
X175610733Y-78679761D01*
X175563114Y-78632142D01*
X175515495Y-78536904D01*
X175467876Y-78346428D01*
X175467876Y-78108333D01*
X175515495Y-77917857D01*
X175563114Y-77822619D01*
X175610733Y-77775000D01*
X175705971Y-77727380D01*
X174610733Y-112677380D02*
X174277400Y-112201190D01*
X174039304Y-112677380D02*
X174039304Y-111677380D01*
X174420257Y-111677380D01*
X174515495Y-111725000D01*
X174563114Y-111772619D01*
X174610733Y-111867857D01*
X174610733Y-112010714D01*
X174563114Y-112105952D01*
X174515495Y-112153571D01*
X174420257Y-112201190D01*
X174039304Y-112201190D01*
X175086923Y-112677380D02*
X175277400Y-112677380D01*
X175372638Y-112629761D01*
X175420257Y-112582142D01*
X175515495Y-112439285D01*
X175563114Y-112248809D01*
X175563114Y-111867857D01*
X175515495Y-111772619D01*
X175467876Y-111725000D01*
X175372638Y-111677380D01*
X175182161Y-111677380D01*
X175086923Y-111725000D01*
X175039304Y-111772619D01*
X174991685Y-111867857D01*
X174991685Y-112105952D01*
X175039304Y-112201190D01*
X175086923Y-112248809D01*
X175182161Y-112296428D01*
X175372638Y-112296428D01*
X175467876Y-112248809D01*
X175515495Y-112201190D01*
X175563114Y-112105952D01*
X174610733Y-99977380D02*
X174277400Y-99501190D01*
X174039304Y-99977380D02*
X174039304Y-98977380D01*
X174420257Y-98977380D01*
X174515495Y-99025000D01*
X174563114Y-99072619D01*
X174610733Y-99167857D01*
X174610733Y-99310714D01*
X174563114Y-99405952D01*
X174515495Y-99453571D01*
X174420257Y-99501190D01*
X174039304Y-99501190D01*
X175182161Y-99405952D02*
X175086923Y-99358333D01*
X175039304Y-99310714D01*
X174991685Y-99215476D01*
X174991685Y-99167857D01*
X175039304Y-99072619D01*
X175086923Y-99025000D01*
X175182161Y-98977380D01*
X175372638Y-98977380D01*
X175467876Y-99025000D01*
X175515495Y-99072619D01*
X175563114Y-99167857D01*
X175563114Y-99215476D01*
X175515495Y-99310714D01*
X175467876Y-99358333D01*
X175372638Y-99405952D01*
X175182161Y-99405952D01*
X175086923Y-99453571D01*
X175039304Y-99501190D01*
X174991685Y-99596428D01*
X174991685Y-99786904D01*
X175039304Y-99882142D01*
X175086923Y-99929761D01*
X175182161Y-99977380D01*
X175372638Y-99977380D01*
X175467876Y-99929761D01*
X175515495Y-99882142D01*
X175563114Y-99786904D01*
X175563114Y-99596428D01*
X175515495Y-99501190D01*
X175467876Y-99453571D01*
X175372638Y-99405952D01*
X174610733Y-87277380D02*
X174277400Y-86801190D01*
X174039304Y-87277380D02*
X174039304Y-86277380D01*
X174420257Y-86277380D01*
X174515495Y-86325000D01*
X174563114Y-86372619D01*
X174610733Y-86467857D01*
X174610733Y-86610714D01*
X174563114Y-86705952D01*
X174515495Y-86753571D01*
X174420257Y-86801190D01*
X174039304Y-86801190D01*
X174944066Y-86277380D02*
X175610733Y-86277380D01*
X175182161Y-87277380D01*
X174610733Y-105057380D02*
X174277400Y-104581190D01*
X174039304Y-105057380D02*
X174039304Y-104057380D01*
X174420257Y-104057380D01*
X174515495Y-104105000D01*
X174563114Y-104152619D01*
X174610733Y-104247857D01*
X174610733Y-104390714D01*
X174563114Y-104485952D01*
X174515495Y-104533571D01*
X174420257Y-104581190D01*
X174039304Y-104581190D01*
X175467876Y-104057380D02*
X175277400Y-104057380D01*
X175182161Y-104105000D01*
X175134542Y-104152619D01*
X175039304Y-104295476D01*
X174991685Y-104485952D01*
X174991685Y-104866904D01*
X175039304Y-104962142D01*
X175086923Y-105009761D01*
X175182161Y-105057380D01*
X175372638Y-105057380D01*
X175467876Y-105009761D01*
X175515495Y-104962142D01*
X175563114Y-104866904D01*
X175563114Y-104628809D01*
X175515495Y-104533571D01*
X175467876Y-104485952D01*
X175372638Y-104438333D01*
X175182161Y-104438333D01*
X175086923Y-104485952D01*
X175039304Y-104533571D01*
X174991685Y-104628809D01*
X174610733Y-92357380D02*
X174277400Y-91881190D01*
X174039304Y-92357380D02*
X174039304Y-91357380D01*
X174420257Y-91357380D01*
X174515495Y-91405000D01*
X174563114Y-91452619D01*
X174610733Y-91547857D01*
X174610733Y-91690714D01*
X174563114Y-91785952D01*
X174515495Y-91833571D01*
X174420257Y-91881190D01*
X174039304Y-91881190D01*
X175515495Y-91357380D02*
X175039304Y-91357380D01*
X174991685Y-91833571D01*
X175039304Y-91785952D01*
X175134542Y-91738333D01*
X175372638Y-91738333D01*
X175467876Y-91785952D01*
X175515495Y-91833571D01*
X175563114Y-91928809D01*
X175563114Y-92166904D01*
X175515495Y-92262142D01*
X175467876Y-92309761D01*
X175372638Y-92357380D01*
X175134542Y-92357380D01*
X175039304Y-92309761D01*
X174991685Y-92262142D01*
X174610733Y-79657380D02*
X174277400Y-79181190D01*
X174039304Y-79657380D02*
X174039304Y-78657380D01*
X174420257Y-78657380D01*
X174515495Y-78705000D01*
X174563114Y-78752619D01*
X174610733Y-78847857D01*
X174610733Y-78990714D01*
X174563114Y-79085952D01*
X174515495Y-79133571D01*
X174420257Y-79181190D01*
X174039304Y-79181190D01*
X175467876Y-78990714D02*
X175467876Y-79657380D01*
X175229780Y-78609761D02*
X174991685Y-79324047D01*
X175610733Y-79324047D01*
X147459780Y-106211666D02*
X146983590Y-106545000D01*
X147459780Y-106783095D02*
X146459780Y-106783095D01*
X146459780Y-106402142D01*
X146507400Y-106306904D01*
X146555019Y-106259285D01*
X146650257Y-106211666D01*
X146793114Y-106211666D01*
X146888352Y-106259285D01*
X146935971Y-106306904D01*
X146983590Y-106402142D01*
X146983590Y-106783095D01*
X146459780Y-105878333D02*
X146459780Y-105259285D01*
X146840733Y-105592619D01*
X146840733Y-105449761D01*
X146888352Y-105354523D01*
X146935971Y-105306904D01*
X147031209Y-105259285D01*
X147269304Y-105259285D01*
X147364542Y-105306904D01*
X147412161Y-105354523D01*
X147459780Y-105449761D01*
X147459780Y-105735476D01*
X147412161Y-105830714D01*
X147364542Y-105878333D01*
X146555019Y-93178333D02*
X147031209Y-92845000D01*
X146555019Y-92606904D02*
X147555019Y-92606904D01*
X147555019Y-92987857D01*
X147507400Y-93083095D01*
X147459780Y-93130714D01*
X147364542Y-93178333D01*
X147221685Y-93178333D01*
X147126447Y-93130714D01*
X147078828Y-93083095D01*
X147031209Y-92987857D01*
X147031209Y-92606904D01*
X147459780Y-93559285D02*
X147507400Y-93606904D01*
X147555019Y-93702142D01*
X147555019Y-93940238D01*
X147507400Y-94035476D01*
X147459780Y-94083095D01*
X147364542Y-94130714D01*
X147269304Y-94130714D01*
X147126447Y-94083095D01*
X146555019Y-93511666D01*
X146555019Y-94130714D01*
X165784304Y-80247380D02*
X165784304Y-79247380D01*
X166022400Y-79247380D01*
X166165257Y-79295000D01*
X166260495Y-79390238D01*
X166308114Y-79485476D01*
X166355733Y-79675952D01*
X166355733Y-79818809D01*
X166308114Y-80009285D01*
X166260495Y-80104523D01*
X166165257Y-80199761D01*
X166022400Y-80247380D01*
X165784304Y-80247380D01*
X167308114Y-80247380D02*
X166736685Y-80247380D01*
X167022400Y-80247380D02*
X167022400Y-79247380D01*
X166927161Y-79390238D01*
X166831923Y-79485476D01*
X166736685Y-79533095D01*
X165784304Y-92947380D02*
X165784304Y-91947380D01*
X166022400Y-91947380D01*
X166165257Y-91995000D01*
X166260495Y-92090238D01*
X166308114Y-92185476D01*
X166355733Y-92375952D01*
X166355733Y-92518809D01*
X166308114Y-92709285D01*
X166260495Y-92804523D01*
X166165257Y-92899761D01*
X166022400Y-92947380D01*
X165784304Y-92947380D01*
X166736685Y-92042619D02*
X166784304Y-91995000D01*
X166879542Y-91947380D01*
X167117638Y-91947380D01*
X167212876Y-91995000D01*
X167260495Y-92042619D01*
X167308114Y-92137857D01*
X167308114Y-92233095D01*
X167260495Y-92375952D01*
X166689066Y-92947380D01*
X167308114Y-92947380D01*
X165784304Y-105647380D02*
X165784304Y-104647380D01*
X166022400Y-104647380D01*
X166165257Y-104695000D01*
X166260495Y-104790238D01*
X166308114Y-104885476D01*
X166355733Y-105075952D01*
X166355733Y-105218809D01*
X166308114Y-105409285D01*
X166260495Y-105504523D01*
X166165257Y-105599761D01*
X166022400Y-105647380D01*
X165784304Y-105647380D01*
X166689066Y-104647380D02*
X167308114Y-104647380D01*
X166974780Y-105028333D01*
X167117638Y-105028333D01*
X167212876Y-105075952D01*
X167260495Y-105123571D01*
X167308114Y-105218809D01*
X167308114Y-105456904D01*
X167260495Y-105552142D01*
X167212876Y-105599761D01*
X167117638Y-105647380D01*
X166831923Y-105647380D01*
X166736685Y-105599761D01*
X166689066Y-105552142D01*
X201534780Y-80978333D02*
X202249066Y-80978333D01*
X202391923Y-81025952D01*
X202487161Y-81121190D01*
X202534780Y-81264047D01*
X202534780Y-81359285D01*
X202534780Y-79978333D02*
X202534780Y-80549761D01*
X202534780Y-80264047D02*
X201534780Y-80264047D01*
X201677638Y-80359285D01*
X201772876Y-80454523D01*
X201820495Y-80549761D01*
X201534780Y-93678333D02*
X202249066Y-93678333D01*
X202391923Y-93725952D01*
X202487161Y-93821190D01*
X202534780Y-93964047D01*
X202534780Y-94059285D01*
X201630019Y-93249761D02*
X201582400Y-93202142D01*
X201534780Y-93106904D01*
X201534780Y-92868809D01*
X201582400Y-92773571D01*
X201630019Y-92725952D01*
X201725257Y-92678333D01*
X201820495Y-92678333D01*
X201963352Y-92725952D01*
X202534780Y-93297380D01*
X202534780Y-92678333D01*
X201534780Y-106378333D02*
X202249066Y-106378333D01*
X202391923Y-106425952D01*
X202487161Y-106521190D01*
X202534780Y-106664047D01*
X202534780Y-106759285D01*
X201534780Y-105997380D02*
X201534780Y-105378333D01*
X201915733Y-105711666D01*
X201915733Y-105568809D01*
X201963352Y-105473571D01*
X202010971Y-105425952D01*
X202106209Y-105378333D01*
X202344304Y-105378333D01*
X202439542Y-105425952D01*
X202487161Y-105473571D01*
X202534780Y-105568809D01*
X202534780Y-105854523D01*
X202487161Y-105949761D01*
X202439542Y-105997380D01*
X120562619Y-110791666D02*
X119848333Y-110791666D01*
X119705476Y-110744047D01*
X119610238Y-110648809D01*
X119562619Y-110505952D01*
X119562619Y-110410714D01*
X120229285Y-111696428D02*
X119562619Y-111696428D01*
X120610238Y-111458333D02*
X119895952Y-111220238D01*
X119895952Y-111839285D01*
X180580019Y-80740238D02*
X180532400Y-80835476D01*
X180437161Y-80930714D01*
X180294304Y-81073571D01*
X180246685Y-81168809D01*
X180246685Y-81264047D01*
X180484780Y-81216428D02*
X180437161Y-81311666D01*
X180341923Y-81406904D01*
X180151447Y-81454523D01*
X179818114Y-81454523D01*
X179627638Y-81406904D01*
X179532400Y-81311666D01*
X179484780Y-81216428D01*
X179484780Y-81025952D01*
X179532400Y-80930714D01*
X179627638Y-80835476D01*
X179818114Y-80787857D01*
X180151447Y-80787857D01*
X180341923Y-80835476D01*
X180437161Y-80930714D01*
X180484780Y-81025952D01*
X180484780Y-81216428D01*
X180484780Y-79835476D02*
X180484780Y-80406904D01*
X180484780Y-80121190D02*
X179484780Y-80121190D01*
X179627638Y-80216428D01*
X179722876Y-80311666D01*
X179770495Y-80406904D01*
X180580019Y-93440238D02*
X180532400Y-93535476D01*
X180437161Y-93630714D01*
X180294304Y-93773571D01*
X180246685Y-93868809D01*
X180246685Y-93964047D01*
X180484780Y-93916428D02*
X180437161Y-94011666D01*
X180341923Y-94106904D01*
X180151447Y-94154523D01*
X179818114Y-94154523D01*
X179627638Y-94106904D01*
X179532400Y-94011666D01*
X179484780Y-93916428D01*
X179484780Y-93725952D01*
X179532400Y-93630714D01*
X179627638Y-93535476D01*
X179818114Y-93487857D01*
X180151447Y-93487857D01*
X180341923Y-93535476D01*
X180437161Y-93630714D01*
X180484780Y-93725952D01*
X180484780Y-93916428D01*
X179580019Y-93106904D02*
X179532400Y-93059285D01*
X179484780Y-92964047D01*
X179484780Y-92725952D01*
X179532400Y-92630714D01*
X179580019Y-92583095D01*
X179675257Y-92535476D01*
X179770495Y-92535476D01*
X179913352Y-92583095D01*
X180484780Y-93154523D01*
X180484780Y-92535476D01*
X180580019Y-106140238D02*
X180532400Y-106235476D01*
X180437161Y-106330714D01*
X180294304Y-106473571D01*
X180246685Y-106568809D01*
X180246685Y-106664047D01*
X180484780Y-106616428D02*
X180437161Y-106711666D01*
X180341923Y-106806904D01*
X180151447Y-106854523D01*
X179818114Y-106854523D01*
X179627638Y-106806904D01*
X179532400Y-106711666D01*
X179484780Y-106616428D01*
X179484780Y-106425952D01*
X179532400Y-106330714D01*
X179627638Y-106235476D01*
X179818114Y-106187857D01*
X180151447Y-106187857D01*
X180341923Y-106235476D01*
X180437161Y-106330714D01*
X180484780Y-106425952D01*
X180484780Y-106616428D01*
X179484780Y-105854523D02*
X179484780Y-105235476D01*
X179865733Y-105568809D01*
X179865733Y-105425952D01*
X179913352Y-105330714D01*
X179960971Y-105283095D01*
X180056209Y-105235476D01*
X180294304Y-105235476D01*
X180389542Y-105283095D01*
X180437161Y-105330714D01*
X180484780Y-105425952D01*
X180484780Y-105711666D01*
X180437161Y-105806904D01*
X180389542Y-105854523D01*
M02*
